<mxfile host="Electron" modified="2024-01-22T18:26:51.889Z" agent="Mozilla/5.0 (Windows NT 10.0; Win64; x64) AppleWebKit/537.36 (KHTML, like Gecko) draw.io/22.1.16 Chrome/120.0.6099.109 Electron/28.1.0 Safari/537.36" etag="CxfdFISX5hxqhp2LLTtU" version="22.1.16" type="device">
  <diagram id="BuB4WTCWsA_IElzsmOX1" name="Page-1">
    <mxGraphModel dx="592" dy="347" grid="1" gridSize="10" guides="1" tooltips="1" connect="1" arrows="1" fold="1" page="1" pageScale="1" pageWidth="1169" pageHeight="827" math="0" shadow="0">
      <root>
        <mxCell id="0" />
        <mxCell id="1" parent="0" />
        <mxCell id="nK3DnohKbSbigpCUH78E-12" value="" style="rounded=0;whiteSpace=wrap;html=1;fillColor=none;dashed=1;strokeColor=#2F6496;strokeWidth=3;" parent="1" vertex="1">
          <mxGeometry x="1674" y="30" width="222" height="880" as="geometry" />
        </mxCell>
        <mxCell id="kyE_ZreP79h8OeemXXtl-35" value="" style="rounded=0;whiteSpace=wrap;html=1;fillColor=none;dashed=1;strokeColor=#2F6496;strokeWidth=3;" parent="1" vertex="1">
          <mxGeometry x="610" y="30" width="910" height="880" as="geometry" />
        </mxCell>
        <mxCell id="kyE_ZreP79h8OeemXXtl-44" value="" style="rounded=1;whiteSpace=wrap;html=1;dashed=1;fontColor=#2F6496;strokeColor=#000000;fillColor=none;" parent="1" vertex="1">
          <mxGeometry x="810" y="574.5" width="400" height="140" as="geometry" />
        </mxCell>
        <mxCell id="nK3DnohKbSbigpCUH78E-67" style="edgeStyle=orthogonalEdgeStyle;curved=1;sketch=0;orthogonalLoop=1;jettySize=auto;html=1;entryX=0.028;entryY=0.603;entryDx=0;entryDy=0;entryPerimeter=0;shadow=0;fontSize=11;fontColor=default;startArrow=classic;startFill=1;endArrow=classic;endFill=1;strokeColor=#0066CC;exitX=1;exitY=0.75;exitDx=0;exitDy=0;strokeWidth=2;" parent="1" source="uG3osrd_wkO0EPn169cS-2" target="nK3DnohKbSbigpCUH78E-64" edge="1">
          <mxGeometry relative="1" as="geometry" />
        </mxCell>
        <mxCell id="nK3DnohKbSbigpCUH78E-68" value="Persistent connection&lt;br&gt;for message exchange&lt;br&gt;[WSS]" style="edgeLabel;html=1;align=center;verticalAlign=middle;resizable=0;points=[];fontSize=11;fontColor=default;" parent="nK3DnohKbSbigpCUH78E-67" vertex="1" connectable="0">
          <mxGeometry x="0.1866" y="7" relative="1" as="geometry">
            <mxPoint x="-36" y="39" as="offset" />
          </mxGeometry>
        </mxCell>
        <mxCell id="uG3osrd_wkO0EPn169cS-2" value="" style="rounded=1;whiteSpace=wrap;html=1;dashed=1;fontColor=#2F6496;strokeColor=#000000;fillColor=none;" parent="1" vertex="1">
          <mxGeometry x="810" y="400" width="400" height="140" as="geometry" />
        </mxCell>
        <mxCell id="kyE_ZreP79h8OeemXXtl-39" value="" style="rounded=1;whiteSpace=wrap;html=1;dashed=1;fontColor=#2F6496;strokeColor=#000000;fillColor=none;" parent="1" vertex="1">
          <mxGeometry x="1103.31" y="218.5" width="400" height="140" as="geometry" />
        </mxCell>
        <mxCell id="kyE_ZreP79h8OeemXXtl-48" value="" style="rounded=0;whiteSpace=wrap;html=1;fillColor=none;dashed=1;strokeColor=#2F6496;strokeWidth=3;" parent="1" vertex="1">
          <mxGeometry x="370" y="30" width="220" height="880" as="geometry" />
        </mxCell>
        <mxCell id="kyE_ZreP79h8OeemXXtl-40" value="" style="rounded=1;whiteSpace=wrap;html=1;dashed=1;fontColor=#2F6496;strokeColor=#000000;fillColor=none;" parent="1" vertex="1">
          <mxGeometry x="810" y="746.5" width="400" height="140" as="geometry" />
        </mxCell>
        <mxCell id="nK3DnohKbSbigpCUH78E-16" value="" style="edgeStyle=orthogonalEdgeStyle;orthogonalLoop=1;jettySize=auto;html=1;fontColor=#FFFFFF;curved=1;startArrow=classic;startFill=1;endArrow=none;endFill=0;dashed=1;fillColor=#dae8fc;strokeColor=#6c8ebf;" parent="1" source="kyE_ZreP79h8OeemXXtl-38" target="nK3DnohKbSbigpCUH78E-1" edge="1">
          <mxGeometry relative="1" as="geometry" />
        </mxCell>
        <mxCell id="kyE_ZreP79h8OeemXXtl-38" value="" style="rounded=1;whiteSpace=wrap;html=1;dashed=1;fontColor=#2F6496;strokeColor=#000000;fillColor=none;" parent="1" vertex="1">
          <mxGeometry x="1103.31" y="42.5" width="400" height="140" as="geometry" />
        </mxCell>
        <mxCell id="kyE_ZreP79h8OeemXXtl-1" value="" style="group;rounded=0;labelBackgroundColor=none;fillColor=none;fontColor=#ffffff;align=center;html=1;" parent="1" vertex="1" connectable="0">
          <mxGeometry x="150" y="280" width="90" height="130" as="geometry" />
          <C4Person as="c4" />
        </mxCell>
        <object label="&lt;b&gt;User&lt;br&gt;&lt;/b&gt;&lt;div&gt;[Person]&lt;/div&gt;&lt;div&gt;&lt;br&gt;&lt;/div&gt;&lt;div&gt;Public user&lt;/div&gt;&lt;div&gt;&lt;br&gt;&lt;/div&gt;" placeholders="1" c4Name="name" c4Type="body" c4Description="Description" id="kyE_ZreP79h8OeemXXtl-2">
          <mxCell style="rounded=1;whiteSpace=wrap;html=1;labelBackgroundColor=none;fillColor=#08427b;fontColor=#ffffff;align=center;arcSize=33;strokeColor=3c7fc0;" parent="kyE_ZreP79h8OeemXXtl-1" vertex="1">
            <mxGeometry y="50.55555555555556" width="90" height="79.44444444444446" as="geometry" />
            <C4Person as="c4" />
          </mxCell>
        </object>
        <mxCell id="kyE_ZreP79h8OeemXXtl-3" value="" style="ellipse;whiteSpace=wrap;html=1;aspect=fixed;rounded=0;labelBackgroundColor=none;fillColor=#08427b;fontSize=12;fontColor=#ffffff;align=center;strokeColor=3c7fc0;" parent="kyE_ZreP79h8OeemXXtl-1" vertex="1">
          <mxGeometry x="22.5" width="45" height="45" as="geometry" />
          <C4Person as="c4" />
        </mxCell>
        <mxCell id="uG3osrd_wkO0EPn169cS-11" style="edgeStyle=orthogonalEdgeStyle;curved=1;orthogonalLoop=1;jettySize=auto;html=1;entryX=0;entryY=0.5;entryDx=0;entryDy=0;exitX=0.5;exitY=1;exitDx=0;exitDy=0;startArrow=classic;startFill=1;endArrow=none;endFill=0;fillColor=#e1d5e7;strokeColor=#0066CC;strokeWidth=2;" parent="1" source="kyE_ZreP79h8OeemXXtl-5" target="uG3osrd_wkO0EPn169cS-1" edge="1">
          <mxGeometry relative="1" as="geometry" />
        </mxCell>
        <mxCell id="uG3osrd_wkO0EPn169cS-12" value="Sends&lt;br&gt;notifications/updates&lt;br&gt;[WSS]" style="edgeLabel;html=1;align=center;verticalAlign=middle;resizable=0;points=[];" parent="uG3osrd_wkO0EPn169cS-11" vertex="1" connectable="0">
          <mxGeometry x="-0.2867" y="82" relative="1" as="geometry">
            <mxPoint x="138" y="80" as="offset" />
          </mxGeometry>
        </mxCell>
        <object label="&lt;span&gt;&lt;b&gt;SPA Web App&lt;/b&gt;&lt;/span&gt;&lt;div&gt;[Container: Angular&lt;span&gt;]&lt;/span&gt;&lt;/div&gt;&lt;div&gt;&lt;br&gt;&lt;/div&gt;&lt;div&gt;TypeScript/Angular 13&lt;/div&gt;&lt;div&gt;application&lt;/div&gt;" placeholders="1" c4Name="name" c4Type="Container" c4Technology="technology" c4Description="Description" id="kyE_ZreP79h8OeemXXtl-5">
          <mxCell style="rounded=1;whiteSpace=wrap;html=1;labelBackgroundColor=none;fillColor=#438dd5;fontColor=#ffffff;align=center;arcSize=6;strokeColor=#3c7fc0;" parent="1" vertex="1">
            <mxGeometry x="400" y="315.28" width="160" height="110" as="geometry" />
            <C4Container as="c4" />
          </mxCell>
        </object>
        <mxCell id="kyE_ZreP79h8OeemXXtl-31" style="edgeStyle=orthogonalEdgeStyle;rounded=0;orthogonalLoop=1;jettySize=auto;html=1;strokeColor=#2E2E2E;strokeWidth=1;dashed=1;dashPattern=1 2;entryX=0;entryY=0.75;entryDx=0;entryDy=0;" parent="1" source="kyE_ZreP79h8OeemXXtl-6" target="kyE_ZreP79h8OeemXXtl-25" edge="1">
          <mxGeometry relative="1" as="geometry">
            <Array as="points">
              <mxPoint x="630" y="819" />
              <mxPoint x="630" y="281" />
            </Array>
            <mxPoint x="650" y="350" as="targetPoint" />
          </mxGeometry>
        </mxCell>
        <mxCell id="kyE_ZreP79h8OeemXXtl-57" value="Pools services &lt;br&gt;health &lt;br&gt;endpoints&lt;br&gt;[HTTP]" style="edgeLabel;html=1;align=center;verticalAlign=middle;resizable=0;points=[];fontSize=12;fontColor=#000000;" parent="kyE_ZreP79h8OeemXXtl-31" vertex="1" connectable="0">
          <mxGeometry x="0.03" y="1" relative="1" as="geometry">
            <mxPoint x="101" y="194" as="offset" />
          </mxGeometry>
        </mxCell>
        <object label="&lt;span&gt;&lt;b&gt;Web Status UI&lt;/b&gt;&lt;/span&gt;&lt;div&gt;[Container: ASP.NET 6&lt;span&gt;]&lt;/span&gt;&lt;/div&gt;&lt;div&gt;&lt;br&gt;&lt;/div&gt;&lt;div&gt;Shows status of the&amp;nbsp;&lt;/div&gt;&lt;div&gt;services running&lt;/div&gt;" placeholders="1" c4Name="name" c4Type="Container" c4Technology="technology" c4Description="Description" id="kyE_ZreP79h8OeemXXtl-6">
          <mxCell style="rounded=1;whiteSpace=wrap;html=1;labelBackgroundColor=none;fillColor=#438dd5;fontColor=#ffffff;align=center;arcSize=6;strokeColor=#3c7fc0;" parent="1" vertex="1">
            <mxGeometry x="829" y="761.5" width="160" height="110" as="geometry" />
            <C4Container as="c4" />
          </mxCell>
        </object>
        <object label="&lt;span&gt;&lt;b&gt;Logging&lt;/b&gt;&lt;/span&gt;&lt;div&gt;[Container: Seq&lt;span&gt;]&lt;/span&gt;&lt;/div&gt;&lt;div&gt;&lt;br&gt;&lt;/div&gt;&lt;div&gt;Central logging store&lt;/div&gt;" placeholders="1" c4Name="name" c4Type="Container" c4Technology="technology" c4Description="Description" id="kyE_ZreP79h8OeemXXtl-7">
          <mxCell style="rounded=1;whiteSpace=wrap;html=1;labelBackgroundColor=none;fillColor=#438dd5;fontColor=#ffffff;align=center;arcSize=6;strokeColor=#3c7fc0;" parent="1" vertex="1">
            <mxGeometry x="1030" y="761.5" width="160" height="110" as="geometry" />
            <C4Container as="c4" />
          </mxCell>
        </object>
        <mxCell id="kyE_ZreP79h8OeemXXtl-32" style="edgeStyle=orthogonalEdgeStyle;rounded=0;orthogonalLoop=1;jettySize=auto;html=1;entryX=0;entryY=0.5;entryDx=0;entryDy=0;strokeColor=#2E2E2E;strokeWidth=1;" parent="1" source="kyE_ZreP79h8OeemXXtl-8" target="kyE_ZreP79h8OeemXXtl-10" edge="1">
          <mxGeometry relative="1" as="geometry" />
        </mxCell>
        <mxCell id="kyE_ZreP79h8OeemXXtl-55" value="&lt;font style=&quot;font-size: 12px&quot;&gt;Stores data in&lt;br&gt;[TCP]&lt;/font&gt;" style="edgeLabel;html=1;align=center;verticalAlign=middle;resizable=0;points=[];fontSize=14;fontColor=#000000;" parent="kyE_ZreP79h8OeemXXtl-32" vertex="1" connectable="0">
          <mxGeometry x="-0.2267" y="-2" relative="1" as="geometry">
            <mxPoint x="8" y="-2" as="offset" />
          </mxGeometry>
        </mxCell>
        <object label="&lt;span&gt;&lt;b&gt;Identity API&lt;/b&gt;&lt;/span&gt;&lt;div&gt;[Container: ASP.NET 6&lt;span&gt;]&lt;/span&gt;&lt;/div&gt;&lt;div&gt;&lt;br&gt;&lt;/div&gt;&lt;div&gt;Auth and identity management&lt;/div&gt;" placeholders="1" c4Name="name" c4Type="Container" c4Technology="technology" c4Description="Description" id="kyE_ZreP79h8OeemXXtl-8">
          <mxCell style="rounded=1;whiteSpace=wrap;html=1;labelBackgroundColor=none;fillColor=#438dd5;fontColor=#ffffff;align=center;arcSize=6;strokeColor=#3c7fc0;" parent="1" vertex="1">
            <mxGeometry x="1122.31" y="62.5" width="160" height="110" as="geometry" />
            <C4Container as="c4" />
          </mxCell>
        </object>
        <mxCell id="kyE_ZreP79h8OeemXXtl-34" style="edgeStyle=orthogonalEdgeStyle;rounded=0;orthogonalLoop=1;jettySize=auto;html=1;entryX=0;entryY=0.5;entryDx=0;entryDy=0;strokeColor=#2E2E2E;strokeWidth=1;" parent="1" source="kyE_ZreP79h8OeemXXtl-9" target="kyE_ZreP79h8OeemXXtl-11" edge="1">
          <mxGeometry relative="1" as="geometry" />
        </mxCell>
        <mxCell id="kyE_ZreP79h8OeemXXtl-56" value="Stores data in&lt;br&gt;[TCP]" style="edgeLabel;html=1;align=center;verticalAlign=middle;resizable=0;points=[];fontSize=12;fontColor=#000000;" parent="kyE_ZreP79h8OeemXXtl-34" vertex="1" connectable="0">
          <mxGeometry x="-0.1891" y="2" relative="1" as="geometry">
            <mxPoint x="5" y="2" as="offset" />
          </mxGeometry>
        </mxCell>
        <object label="&lt;span&gt;&lt;b&gt;Expenses API&lt;/b&gt;&lt;/span&gt;&lt;div&gt;[Container: ASP.NET 6&lt;span&gt;]&lt;/span&gt;&lt;/div&gt;&lt;div&gt;&lt;br&gt;&lt;/div&gt;&lt;div&gt;Expenses and campaigns management&lt;/div&gt;" placeholders="1" c4Name="name" c4Type="Container" c4Technology="technology" c4Description="Description" id="kyE_ZreP79h8OeemXXtl-9">
          <mxCell style="rounded=1;whiteSpace=wrap;html=1;labelBackgroundColor=none;fillColor=#438dd5;fontColor=#ffffff;align=center;arcSize=6;strokeColor=#3c7fc0;" parent="1" vertex="1">
            <mxGeometry x="1123.31" y="233.5" width="160" height="110" as="geometry" />
            <C4Container as="c4" />
          </mxCell>
        </object>
        <object label="&lt;span&gt;Identity Db&lt;br&gt;&lt;br&gt;&lt;/span&gt;&lt;div&gt;[Container:&amp;nbsp;MS SQL]&lt;/div&gt;&lt;div&gt;&lt;br&gt;&lt;/div&gt;&lt;div&gt;&lt;br&gt;&lt;/div&gt;" placeholders="1" c4Type="Database" c4Technology="technology" c4Description="Description" id="kyE_ZreP79h8OeemXXtl-10">
          <mxCell style="shape=cylinder;whiteSpace=wrap;html=1;boundedLbl=1;rounded=0;labelBackgroundColor=none;fillColor=#438dd5;fontSize=12;fontColor=#ffffff;align=center;strokeColor=#3c7fc0;" parent="1" vertex="1">
            <mxGeometry x="1393.31" y="60" width="100" height="115" as="geometry" />
            <C4Database as="c4" />
          </mxCell>
        </object>
        <object label="&lt;span&gt;Expenses Db&lt;br&gt;&lt;br&gt;&lt;/span&gt;&lt;div&gt;[Container:&amp;nbsp;MS SQL]&lt;/div&gt;&lt;div&gt;&lt;br&gt;&lt;/div&gt;&lt;div&gt;&lt;br&gt;&lt;/div&gt;" placeholders="1" c4Type="Database" c4Technology="technology" c4Description="Description" id="kyE_ZreP79h8OeemXXtl-11">
          <mxCell style="shape=cylinder;whiteSpace=wrap;html=1;boundedLbl=1;rounded=0;labelBackgroundColor=none;fillColor=#438dd5;fontSize=12;fontColor=#ffffff;align=center;strokeColor=#3c7fc0;" parent="1" vertex="1">
            <mxGeometry x="1393.31" y="228.5" width="100" height="120" as="geometry" />
            <C4Database as="c4" />
          </mxCell>
        </object>
        <object label="&lt;span&gt;&lt;b&gt;Web UI Host&lt;/b&gt;&lt;/span&gt;&lt;div&gt;[Container: ASP.NET 6&lt;span&gt;]&lt;/span&gt;&lt;/div&gt;&lt;div&gt;&lt;br&gt;&lt;/div&gt;&lt;div&gt;Hosts SPA static assets and configuration&lt;/div&gt;" placeholders="1" c4Name="name" c4Type="Container" c4Technology="technology" c4Description="Description" id="kyE_ZreP79h8OeemXXtl-12">
          <mxCell style="rounded=1;whiteSpace=wrap;html=1;labelBackgroundColor=none;fillColor=#438dd5;fontColor=#ffffff;align=center;arcSize=6;strokeColor=#3c7fc0;" parent="1" vertex="1">
            <mxGeometry x="829" y="589.5" width="160" height="110" as="geometry" />
            <C4Container as="c4" />
          </mxCell>
        </object>
        <mxCell id="kyE_ZreP79h8OeemXXtl-13" style="edgeStyle=orthogonalEdgeStyle;rounded=0;orthogonalLoop=1;jettySize=auto;html=1;entryX=0;entryY=0.5;entryDx=0;entryDy=0;curved=1;strokeWidth=2;" parent="1" source="kyE_ZreP79h8OeemXXtl-2" target="kyE_ZreP79h8OeemXXtl-5" edge="1">
          <mxGeometry relative="1" as="geometry" />
        </mxCell>
        <mxCell id="uG3osrd_wkO0EPn169cS-16" value="Uses&lt;br&gt;[HTTPS]" style="edgeLabel;html=1;align=center;verticalAlign=middle;resizable=0;points=[];" parent="kyE_ZreP79h8OeemXXtl-13" vertex="1" connectable="0">
          <mxGeometry x="-0.2654" relative="1" as="geometry">
            <mxPoint as="offset" />
          </mxGeometry>
        </mxCell>
        <mxCell id="kyE_ZreP79h8OeemXXtl-27" style="edgeStyle=orthogonalEdgeStyle;rounded=0;orthogonalLoop=1;jettySize=auto;html=1;strokeColor=#2E2E2E;strokeWidth=2;entryX=-0.01;entryY=0.275;entryDx=0;entryDy=0;entryPerimeter=0;" parent="1" source="kyE_ZreP79h8OeemXXtl-25" target="PcnibOVChp5ECEz_akHt-10" edge="1">
          <mxGeometry relative="1" as="geometry">
            <Array as="points">
              <mxPoint x="740" y="169" />
              <mxPoint x="740" y="169" />
            </Array>
            <mxPoint x="740" y="220" as="targetPoint" />
          </mxGeometry>
        </mxCell>
        <mxCell id="kyE_ZreP79h8OeemXXtl-53" value="&lt;font style=&quot;font-size: 12px&quot;&gt;Auth and manage &lt;br&gt;identity via&lt;br&gt;[HTTPS]&lt;/font&gt;" style="edgeLabel;html=1;align=center;verticalAlign=middle;resizable=0;points=[];fontSize=14;fontColor=#000000;" parent="kyE_ZreP79h8OeemXXtl-27" vertex="1" connectable="0">
          <mxGeometry x="0.2395" relative="1" as="geometry">
            <mxPoint x="-25" y="-1" as="offset" />
          </mxGeometry>
        </mxCell>
        <mxCell id="kyE_ZreP79h8OeemXXtl-30" style="edgeStyle=orthogonalEdgeStyle;rounded=0;orthogonalLoop=1;jettySize=auto;html=1;entryX=0;entryY=0.75;entryDx=0;entryDy=0;strokeColor=#2E2E2E;strokeWidth=2;exitX=1.16;exitY=0.57;exitDx=0;exitDy=0;exitPerimeter=0;" parent="1" source="kyE_ZreP79h8OeemXXtl-25" target="PcnibOVChp5ECEz_akHt-10" edge="1">
          <mxGeometry relative="1" as="geometry">
            <Array as="points">
              <mxPoint x="672" y="235" />
            </Array>
          </mxGeometry>
        </mxCell>
        <mxCell id="kyE_ZreP79h8OeemXXtl-54" value="&lt;font style=&quot;font-size: 12px&quot;&gt;Manage expenses &lt;br&gt;and&amp;nbsp;campaigns via &lt;br&gt;[HTTP]&lt;/font&gt;" style="edgeLabel;html=1;align=center;verticalAlign=middle;resizable=0;points=[];fontSize=14;fontColor=#000000;" parent="kyE_ZreP79h8OeemXXtl-30" vertex="1" connectable="0">
          <mxGeometry x="-0.2983" relative="1" as="geometry">
            <mxPoint x="12" y="-3" as="offset" />
          </mxGeometry>
        </mxCell>
        <mxCell id="kyE_ZreP79h8OeemXXtl-25" value="" style="rounded=0;whiteSpace=wrap;html=1;fillColor=#424242;" parent="1" vertex="1">
          <mxGeometry x="660" y="78.5" width="10" height="270" as="geometry" />
        </mxCell>
        <mxCell id="kyE_ZreP79h8OeemXXtl-36" value="" style="sketch=0;aspect=fixed;html=1;points=[];align=center;image;fontSize=12;image=img/lib/mscae/Docker.svg;dashed=1;fillColor=none;" parent="1" vertex="1">
          <mxGeometry x="1443.31" y="845.5" width="50" height="41" as="geometry" />
        </mxCell>
        <mxCell id="kyE_ZreP79h8OeemXXtl-37" value="&lt;b&gt;&lt;font color=&quot;#2f6496&quot; style=&quot;font-size: 14px&quot;&gt;Docker Host&lt;/font&gt;&lt;/b&gt;" style="text;html=1;strokeColor=none;fillColor=none;align=center;verticalAlign=middle;whiteSpace=wrap;rounded=0;dashed=1;" parent="1" vertex="1">
          <mxGeometry x="1415.81" y="807.5" width="95" height="30" as="geometry" />
        </mxCell>
        <mxCell id="kyE_ZreP79h8OeemXXtl-41" value="&lt;font color=&quot;#000000&quot;&gt;&lt;b&gt;Admin services&lt;/b&gt;&lt;/font&gt;" style="text;html=1;strokeColor=none;fillColor=default;align=center;verticalAlign=middle;whiteSpace=wrap;rounded=0;dashed=1;fontColor=#2F6496;" parent="1" vertex="1">
          <mxGeometry x="965" y="727.5" width="95" height="30" as="geometry" />
        </mxCell>
        <mxCell id="kyE_ZreP79h8OeemXXtl-42" value="&lt;font color=&quot;#000000&quot;&gt;&lt;b&gt;Identity microservice&lt;/b&gt;&lt;/font&gt;" style="text;html=1;strokeColor=none;fillColor=default;align=center;verticalAlign=middle;whiteSpace=wrap;rounded=0;dashed=1;fontColor=#2F6496;" parent="1" vertex="1">
          <mxGeometry x="1223.31" y="30" width="160" height="30" as="geometry" />
        </mxCell>
        <mxCell id="kyE_ZreP79h8OeemXXtl-43" value="&lt;font color=&quot;#000000&quot;&gt;&lt;b&gt;Expenses microservice&lt;/b&gt;&lt;/font&gt;" style="text;html=1;strokeColor=none;fillColor=default;align=center;verticalAlign=middle;whiteSpace=wrap;rounded=0;fontColor=#2F6496;" parent="1" vertex="1">
          <mxGeometry x="1207.31" y="201.5" width="160" height="30" as="geometry" />
        </mxCell>
        <mxCell id="kyE_ZreP79h8OeemXXtl-45" value="&lt;font color=&quot;#000000&quot;&gt;&lt;b&gt;Web UI microservice&lt;/b&gt;&lt;/font&gt;" style="text;html=1;strokeColor=none;fillColor=default;align=center;verticalAlign=middle;whiteSpace=wrap;rounded=0;dashed=1;fontColor=#2F6496;" parent="1" vertex="1">
          <mxGeometry x="919" y="559.5" width="160" height="30" as="geometry" />
        </mxCell>
        <mxCell id="kyE_ZreP79h8OeemXXtl-49" value="&lt;b&gt;&lt;font color=&quot;#2f6496&quot; style=&quot;font-size: 14px&quot;&gt;Client Applications&lt;/font&gt;&lt;/b&gt;" style="text;html=1;strokeColor=none;fillColor=none;align=center;verticalAlign=middle;whiteSpace=wrap;rounded=0;dashed=1;" parent="1" vertex="1">
          <mxGeometry x="415" y="37.5" width="130" height="30" as="geometry" />
        </mxCell>
        <object label="&lt;span&gt;&lt;b&gt;Notifications Hub&lt;/b&gt;&lt;/span&gt;&lt;div&gt;[Container: ASP.NET 6&lt;span&gt;]&lt;/span&gt;&lt;/div&gt;&lt;div&gt;&lt;br&gt;&lt;/div&gt;&lt;div&gt;Listens to events in the systems and updates UI&lt;/div&gt;&lt;div&gt;with recent changes&lt;/div&gt;" placeholders="1" c4Name="name" c4Type="Container" c4Technology="technology" c4Description="Description" id="uG3osrd_wkO0EPn169cS-1">
          <mxCell style="rounded=1;whiteSpace=wrap;html=1;labelBackgroundColor=none;fillColor=#438dd5;fontColor=#ffffff;align=center;arcSize=6;strokeColor=#3c7fc0;" parent="1" vertex="1">
            <mxGeometry x="829" y="415" width="160" height="110" as="geometry" />
            <C4Container as="c4" />
          </mxCell>
        </object>
        <mxCell id="uG3osrd_wkO0EPn169cS-3" value="&lt;font color=&quot;#000000&quot;&gt;&lt;b&gt;Runtime Notifications microservice&lt;/b&gt;&lt;/font&gt;" style="text;html=1;strokeColor=none;fillColor=default;align=center;verticalAlign=middle;whiteSpace=wrap;rounded=0;dashed=1;fontColor=#2F6496;" parent="1" vertex="1">
          <mxGeometry x="914.5" y="385.4" width="221" height="30" as="geometry" />
        </mxCell>
        <mxCell id="uG3osrd_wkO0EPn169cS-17" value="" style="rounded=0;whiteSpace=wrap;html=1;dashed=1;fontColor=#2F6496;strokeColor=#000000;fillColor=none;" parent="1" vertex="1">
          <mxGeometry x="370" y="950" width="1520" height="80" as="geometry" />
        </mxCell>
        <mxCell id="uG3osrd_wkO0EPn169cS-18" value="" style="endArrow=classic;html=1;curved=1;fillColor=#dae8fc;strokeColor=#0066CC;strokeWidth=2;" parent="1" edge="1">
          <mxGeometry width="50" height="50" relative="1" as="geometry">
            <mxPoint x="710" y="970" as="sourcePoint" />
            <mxPoint x="830" y="970" as="targetPoint" />
          </mxGeometry>
        </mxCell>
        <mxCell id="uG3osrd_wkO0EPn169cS-19" value="" style="endArrow=classic;html=1;dashed=1;dashPattern=1 2;curved=1;" parent="1" edge="1">
          <mxGeometry width="50" height="50" relative="1" as="geometry">
            <mxPoint x="560" y="969.9999999999998" as="sourcePoint" />
            <mxPoint x="680" y="969.9999999999998" as="targetPoint" />
          </mxGeometry>
        </mxCell>
        <mxCell id="uG3osrd_wkO0EPn169cS-20" value="" style="endArrow=classic;html=1;curved=1;strokeWidth=2;" parent="1" edge="1">
          <mxGeometry width="50" height="50" relative="1" as="geometry">
            <mxPoint x="400" y="969.9999999999998" as="sourcePoint" />
            <mxPoint x="520" y="969.9999999999998" as="targetPoint" />
          </mxGeometry>
        </mxCell>
        <mxCell id="uG3osrd_wkO0EPn169cS-21" value="HTTP/HTTPS&lt;br&gt;client to service" style="text;html=1;strokeColor=none;fillColor=none;align=center;verticalAlign=middle;whiteSpace=wrap;rounded=0;" parent="1" vertex="1">
          <mxGeometry x="390" y="980" width="145" height="30" as="geometry" />
        </mxCell>
        <mxCell id="uG3osrd_wkO0EPn169cS-22" value="HTTP/HTTPS&lt;br&gt;service to service" style="text;html=1;strokeColor=none;fillColor=none;align=center;verticalAlign=middle;whiteSpace=wrap;rounded=0;" parent="1" vertex="1">
          <mxGeometry x="550" y="980" width="145" height="30" as="geometry" />
        </mxCell>
        <mxCell id="uG3osrd_wkO0EPn169cS-23" value="WebSocket&lt;br&gt;communication channel" style="text;html=1;strokeColor=none;fillColor=none;align=center;verticalAlign=middle;whiteSpace=wrap;rounded=0;" parent="1" vertex="1">
          <mxGeometry x="700" y="980" width="145" height="30" as="geometry" />
        </mxCell>
        <mxCell id="nK3DnohKbSbigpCUH78E-73" style="edgeStyle=orthogonalEdgeStyle;curved=1;sketch=0;orthogonalLoop=1;jettySize=auto;html=1;entryX=1;entryY=0.5;entryDx=0;entryDy=0;entryPerimeter=0;shadow=0;fontSize=11;fontColor=default;startArrow=none;startFill=0;endArrow=classic;endFill=1;strokeColor=#6c8ebf;strokeWidth=1;dashed=1;fillColor=#dae8fc;" parent="1" source="nK3DnohKbSbigpCUH78E-1" target="nK3DnohKbSbigpCUH78E-70" edge="1">
          <mxGeometry relative="1" as="geometry" />
        </mxCell>
        <mxCell id="nK3DnohKbSbigpCUH78E-1" value="" style="shape=message;html=1;whiteSpace=wrap;html=1;outlineConnect=0;fillColor=#dae8fc;strokeColor=#6c8ebf;" parent="1" vertex="1">
          <mxGeometry x="1573.44" y="147.9" width="30" height="20" as="geometry" />
        </mxCell>
        <mxCell id="nK3DnohKbSbigpCUH78E-18" value="" style="edgeStyle=orthogonalEdgeStyle;orthogonalLoop=1;jettySize=auto;html=1;fontColor=#FFFFFF;curved=1;startArrow=classic;startFill=1;endArrow=none;endFill=0;exitX=1;exitY=0.5;exitDx=0;exitDy=0;dashed=1;fillColor=#dae8fc;strokeColor=#6c8ebf;" parent="1" source="kyE_ZreP79h8OeemXXtl-39" target="nK3DnohKbSbigpCUH78E-20" edge="1">
          <mxGeometry relative="1" as="geometry">
            <mxPoint x="1250" y="292.21000000000015" as="sourcePoint" />
          </mxGeometry>
        </mxCell>
        <mxCell id="nK3DnohKbSbigpCUH78E-19" style="edgeStyle=orthogonalEdgeStyle;curved=1;orthogonalLoop=1;jettySize=auto;html=1;fontColor=#FFFFFF;exitX=1;exitY=0.5;exitDx=0;exitDy=0;fillColor=#dae8fc;strokeColor=#6c8ebf;dashed=1;" parent="1" source="nK3DnohKbSbigpCUH78E-20" edge="1">
          <mxGeometry relative="1" as="geometry">
            <mxPoint x="1763" y="287.5" as="targetPoint" />
            <mxPoint x="1578" y="293.5" as="sourcePoint" />
          </mxGeometry>
        </mxCell>
        <mxCell id="nK3DnohKbSbigpCUH78E-20" value="" style="shape=message;html=1;whiteSpace=wrap;html=1;outlineConnect=0;fillColor=#dae8fc;strokeColor=#6c8ebf;" parent="1" vertex="1">
          <mxGeometry x="1573.44" y="283.90000000000003" width="30" height="20" as="geometry" />
        </mxCell>
        <mxCell id="nK3DnohKbSbigpCUH78E-21" value="" style="edgeStyle=orthogonalEdgeStyle;orthogonalLoop=1;jettySize=auto;html=1;fontColor=#FFFFFF;curved=1;startArrow=classic;startFill=1;endArrow=none;endFill=0;exitX=1;exitY=0.25;exitDx=0;exitDy=0;fillColor=#dae8fc;strokeColor=#6c8ebf;dashed=1;" parent="1" source="uG3osrd_wkO0EPn169cS-2" target="nK3DnohKbSbigpCUH78E-23" edge="1">
          <mxGeometry relative="1" as="geometry">
            <mxPoint x="1310" y="567.2100000000002" as="sourcePoint" />
          </mxGeometry>
        </mxCell>
        <mxCell id="nK3DnohKbSbigpCUH78E-22" style="edgeStyle=orthogonalEdgeStyle;curved=1;orthogonalLoop=1;jettySize=auto;html=1;fontColor=#FFFFFF;exitX=1;exitY=0.5;exitDx=0;exitDy=0;entryX=1;entryY=0.5;entryDx=0;entryDy=0;entryPerimeter=0;fillColor=#dae8fc;strokeColor=#6c8ebf;dashed=1;" parent="1" source="nK3DnohKbSbigpCUH78E-23" target="nK3DnohKbSbigpCUH78E-70" edge="1">
          <mxGeometry relative="1" as="geometry">
            <mxPoint x="1763" y="287.5" as="targetPoint" />
            <mxPoint x="1578" y="425.01724137931046" as="sourcePoint" />
          </mxGeometry>
        </mxCell>
        <mxCell id="nK3DnohKbSbigpCUH78E-23" value="" style="shape=message;html=1;whiteSpace=wrap;html=1;outlineConnect=0;fillColor=#dae8fc;strokeColor=#6c8ebf;" parent="1" vertex="1">
          <mxGeometry x="1573.44" y="415.4" width="30" height="20" as="geometry" />
        </mxCell>
        <mxCell id="nK3DnohKbSbigpCUH78E-24" value="" style="dashed=0;outlineConnect=0;html=1;align=center;labelPosition=center;verticalLabelPosition=bottom;verticalAlign=top;shape=mxgraph.weblogos.chrome;fontColor=#FFFFFF;strokeColor=#424242;strokeWidth=2;fillColor=#4DA2F5;" parent="1" vertex="1">
          <mxGeometry x="400" y="72.4" width="42.4" height="44" as="geometry" />
        </mxCell>
        <mxCell id="nK3DnohKbSbigpCUH78E-26" value="" style="shape=image;html=1;verticalAlign=top;verticalLabelPosition=bottom;labelBackgroundColor=#ffffff;imageAspect=0;aspect=fixed;image=https://cdn2.iconfinder.com/data/icons/browsers/Firefox.png" parent="1" vertex="1">
          <mxGeometry x="456.3" y="72.4" width="47.4" height="47.4" as="geometry" />
        </mxCell>
        <mxCell id="nK3DnohKbSbigpCUH78E-27" value="" style="shape=image;html=1;verticalAlign=top;verticalLabelPosition=bottom;labelBackgroundColor=#ffffff;imageAspect=0;aspect=fixed;image=https://cdn4.iconfinder.com/data/icons/picons-social/57/56-edge-2-128.png" parent="1" vertex="1">
          <mxGeometry x="511.1" y="69.95" width="48.9" height="48.9" as="geometry" />
        </mxCell>
        <mxCell id="nK3DnohKbSbigpCUH78E-31" value="" style="shape=image;verticalLabelPosition=bottom;labelBackgroundColor=#ffffff;verticalAlign=top;aspect=fixed;imageAspect=0;image=https://upload.wikimedia.org/wikipedia/commons/thumb/a/a8/Microsoft_Azure_Logo.svg/1200px-Microsoft_Azure_Logo.svg.png;" parent="1" vertex="1">
          <mxGeometry x="1720" y="42.13" width="130" height="37.5" as="geometry" />
        </mxCell>
        <mxCell id="nK3DnohKbSbigpCUH78E-39" value="" style="shape=image;verticalLabelPosition=bottom;labelBackgroundColor=#ffffff;verticalAlign=top;aspect=fixed;imageAspect=0;image=https://upload.wikimedia.org/wikipedia/commons/thumb/e/ee/.NET_Core_Logo.svg/1200px-.NET_Core_Logo.svg.png;imageBorder=none;" parent="1" vertex="1">
          <mxGeometry x="1111.31" y="226.5" width="35.37" height="35.37" as="geometry" />
        </mxCell>
        <mxCell id="nK3DnohKbSbigpCUH78E-40" value="" style="shape=image;verticalLabelPosition=bottom;labelBackgroundColor=#ffffff;verticalAlign=top;aspect=fixed;imageAspect=0;image=https://upload.wikimedia.org/wikipedia/commons/thumb/e/ee/.NET_Core_Logo.svg/1200px-.NET_Core_Logo.svg.png;imageBorder=none;" parent="1" vertex="1">
          <mxGeometry x="1111.31" y="48.49999999999999" width="35.37" height="35.37" as="geometry" />
        </mxCell>
        <mxCell id="nK3DnohKbSbigpCUH78E-41" value="" style="shape=image;verticalLabelPosition=bottom;labelBackgroundColor=#ffffff;verticalAlign=top;aspect=fixed;imageAspect=0;image=https://upload.wikimedia.org/wikipedia/commons/thumb/e/ee/.NET_Core_Logo.svg/1200px-.NET_Core_Logo.svg.png;imageBorder=none;" parent="1" vertex="1">
          <mxGeometry x="820" y="408" width="35.37" height="35.37" as="geometry" />
        </mxCell>
        <mxCell id="nK3DnohKbSbigpCUH78E-42" value="" style="shape=image;verticalLabelPosition=bottom;labelBackgroundColor=#ffffff;verticalAlign=top;aspect=fixed;imageAspect=0;image=https://upload.wikimedia.org/wikipedia/commons/thumb/e/ee/.NET_Core_Logo.svg/1200px-.NET_Core_Logo.svg.png;imageBorder=none;" parent="1" vertex="1">
          <mxGeometry x="820" y="584.4999999999999" width="35.37" height="35.37" as="geometry" />
        </mxCell>
        <mxCell id="nK3DnohKbSbigpCUH78E-43" value="" style="shape=image;verticalLabelPosition=bottom;labelBackgroundColor=#ffffff;verticalAlign=top;aspect=fixed;imageAspect=0;image=https://upload.wikimedia.org/wikipedia/commons/thumb/e/ee/.NET_Core_Logo.svg/1200px-.NET_Core_Logo.svg.png;imageBorder=none;" parent="1" vertex="1">
          <mxGeometry x="820" y="757.4999999999999" width="35.37" height="35.37" as="geometry" />
        </mxCell>
        <mxCell id="nK3DnohKbSbigpCUH78E-45" value="" style="sketch=0;aspect=fixed;html=1;points=[];align=center;image;fontSize=12;image=img/lib/mscae/Service_Bus.svg;labelBorderColor=none;fontColor=default;strokeColor=#424242;strokeWidth=2;fillColor=#4DA2F5;" parent="1" vertex="1">
          <mxGeometry x="1828" y="255" width="40" height="40" as="geometry" />
        </mxCell>
        <mxCell id="nK3DnohKbSbigpCUH78E-50" value="Azure Service Bus" style="text;html=1;strokeColor=none;fillColor=none;align=center;verticalAlign=middle;whiteSpace=wrap;rounded=0;labelBorderColor=none;sketch=0;fontSize=11;fontColor=default;" parent="1" vertex="1">
          <mxGeometry x="1813" y="307" width="70" height="30" as="geometry" />
        </mxCell>
        <mxCell id="kyE_ZreP79h8OeemXXtl-26" style="edgeStyle=orthogonalEdgeStyle;rounded=0;orthogonalLoop=1;jettySize=auto;html=1;entryX=0;entryY=0.5;entryDx=0;entryDy=0;strokeColor=#2E2E2E;strokeWidth=2;exitX=0.5;exitY=0;exitDx=0;exitDy=0;shadow=0;sketch=0;" parent="1" source="kyE_ZreP79h8OeemXXtl-5" target="kyE_ZreP79h8OeemXXtl-25" edge="1">
          <mxGeometry relative="1" as="geometry" />
        </mxCell>
        <mxCell id="kyE_ZreP79h8OeemXXtl-58" value="Uses&lt;br&gt;[HTTP/HTTPS]" style="edgeLabel;html=1;align=center;verticalAlign=middle;resizable=0;points=[];fontSize=12;fontColor=#000000;" parent="kyE_ZreP79h8OeemXXtl-26" vertex="1" connectable="0">
          <mxGeometry x="0.2372" y="2" relative="1" as="geometry">
            <mxPoint x="-54" y="2" as="offset" />
          </mxGeometry>
        </mxCell>
        <mxCell id="nK3DnohKbSbigpCUH78E-33" value="" style="shape=image;html=1;verticalAlign=top;verticalLabelPosition=bottom;labelBackgroundColor=#ffffff;imageAspect=0;aspect=fixed;image=https://cdn0.iconfinder.com/data/icons/long-shadow-web-icons/512/angular-symbol-128.png;imageBorder=#666666;perimeterSpacing=1;sketch=0;imageBackground=none;fontColor=default;labelBorderColor=none;" parent="1" vertex="1">
          <mxGeometry x="463.57" y="298" width="32.87" height="32.87" as="geometry" />
        </mxCell>
        <mxCell id="nK3DnohKbSbigpCUH78E-54" value="Communicates with other microservices&amp;nbsp;" style="text;html=1;strokeColor=none;fillColor=none;align=center;verticalAlign=middle;whiteSpace=wrap;rounded=0;labelBorderColor=none;sketch=0;fontSize=11;fontColor=default;" parent="1" vertex="1">
          <mxGeometry x="1553.44" y="107.9" width="77.5" height="30" as="geometry" />
        </mxCell>
        <mxCell id="nK3DnohKbSbigpCUH78E-57" value="[AMQP]" style="text;html=1;strokeColor=none;fillColor=none;align=center;verticalAlign=middle;whiteSpace=wrap;rounded=0;labelBorderColor=none;sketch=0;fontSize=11;fontColor=default;" parent="1" vertex="1">
          <mxGeometry x="1563.44" y="167.9" width="50.63" height="22.5" as="geometry" />
        </mxCell>
        <mxCell id="nK3DnohKbSbigpCUH78E-59" value="Communicates with other microservices&amp;nbsp;" style="text;html=1;strokeColor=none;fillColor=none;align=center;verticalAlign=middle;whiteSpace=wrap;rounded=0;labelBorderColor=none;sketch=0;fontSize=11;fontColor=default;" parent="1" vertex="1">
          <mxGeometry x="1550" y="247.89999999999998" width="77.5" height="30" as="geometry" />
        </mxCell>
        <mxCell id="nK3DnohKbSbigpCUH78E-61" value="[AMQP]" style="text;html=1;strokeColor=none;fillColor=none;align=center;verticalAlign=middle;whiteSpace=wrap;rounded=0;labelBorderColor=none;sketch=0;fontSize=11;fontColor=default;" parent="1" vertex="1">
          <mxGeometry x="1563.13" y="303.9" width="50.63" height="22.5" as="geometry" />
        </mxCell>
        <mxCell id="nK3DnohKbSbigpCUH78E-62" value="Communicates with other microservices&amp;nbsp;" style="text;html=1;strokeColor=none;fillColor=none;align=center;verticalAlign=middle;whiteSpace=wrap;rounded=0;labelBorderColor=none;sketch=0;fontSize=11;fontColor=default;" parent="1" vertex="1">
          <mxGeometry x="1551" y="379.9" width="77.5" height="30" as="geometry" />
        </mxCell>
        <mxCell id="nK3DnohKbSbigpCUH78E-63" value="[AMQP]" style="text;html=1;strokeColor=none;fillColor=none;align=center;verticalAlign=middle;whiteSpace=wrap;rounded=0;labelBorderColor=none;sketch=0;fontSize=11;fontColor=default;" parent="1" vertex="1">
          <mxGeometry x="1564.13" y="435.9" width="50.63" height="22.5" as="geometry" />
        </mxCell>
        <mxCell id="nK3DnohKbSbigpCUH78E-64" value="" style="sketch=0;aspect=fixed;html=1;points=[];align=center;image;fontSize=12;image=img/lib/mscae/SignalR.svg;labelBorderColor=none;" parent="1" vertex="1">
          <mxGeometry x="1760" y="435.4" width="50" height="50" as="geometry" />
        </mxCell>
        <mxCell id="nK3DnohKbSbigpCUH78E-65" value="Azure SignalR" style="text;html=1;strokeColor=none;fillColor=none;align=center;verticalAlign=middle;whiteSpace=wrap;rounded=0;labelBorderColor=none;sketch=0;fontSize=11;fontColor=default;" parent="1" vertex="1">
          <mxGeometry x="1746.44" y="497.5" width="70" height="30" as="geometry" />
        </mxCell>
        <mxCell id="nK3DnohKbSbigpCUH78E-72" value="" style="group" parent="1" vertex="1" connectable="0">
          <mxGeometry x="1763" y="187.49999999999997" width="36.88000000000011" height="201.30000000000007" as="geometry" />
        </mxCell>
        <mxCell id="nK3DnohKbSbigpCUH78E-70" value="" style="shape=cylinder3;whiteSpace=wrap;html=1;boundedLbl=1;backgroundOutline=1;size=6.3284737723215585;strokeColor=#424242;rotation=180;fillColor=#438DD5;strokeWidth=2;" parent="nK3DnohKbSbigpCUH78E-72" vertex="1">
          <mxGeometry y="2.842170943040401e-14" width="36.88" height="201.3" as="geometry" />
        </mxCell>
        <mxCell id="nK3DnohKbSbigpCUH78E-71" value="&lt;font color=&quot;#ffffff&quot;&gt;&lt;font style=&quot;font-size: 16px&quot;&gt;Event Bus&lt;/font&gt;&lt;br&gt;&lt;font style=&quot;font-size: 11px&quot;&gt;(Publish/Subscribe Channel)&lt;/font&gt;&lt;/font&gt;" style="text;html=1;align=center;verticalAlign=middle;whiteSpace=wrap;rounded=0;rotation=90;" parent="nK3DnohKbSbigpCUH78E-72" vertex="1">
          <mxGeometry x="-64.55999999999995" y="83.96999999999997" width="166" height="30" as="geometry" />
        </mxCell>
        <mxCell id="nK3DnohKbSbigpCUH78E-75" value="" style="endArrow=classic;html=1;rounded=0;shadow=0;dashed=1;sketch=0;fontSize=11;fontColor=default;strokeColor=#6c8ebf;strokeWidth=1;fillColor=#dae8fc;" parent="1" edge="1">
          <mxGeometry width="50" height="50" relative="1" as="geometry">
            <mxPoint x="895" y="970" as="sourcePoint" />
            <mxPoint x="1015" y="970" as="targetPoint" />
          </mxGeometry>
        </mxCell>
        <mxCell id="nK3DnohKbSbigpCUH78E-76" value="Asyncronous communication via AMQP" style="text;html=1;strokeColor=none;fillColor=none;align=center;verticalAlign=middle;whiteSpace=wrap;rounded=0;" parent="1" vertex="1">
          <mxGeometry x="886.5" y="980" width="145" height="30" as="geometry" />
        </mxCell>
        <mxCell id="nK3DnohKbSbigpCUH78E-77" value="" style="shape=image;verticalLabelPosition=bottom;labelBackgroundColor=#ffffff;verticalAlign=top;aspect=fixed;imageAspect=0;image=data:image/jpeg,/9j/4AAQSkZJRgABAQAAAQABAAD/4gKgSUNDX1BST0ZJTEUAAQEAAAKQbGNtcwQwAABtbnRyUkdCIFhZWiAH4gAJAAQABAANACNhY3NwQVBQTAAAAAAAAAAAAAAAAAAAAAAAAAAAAAAAAAAA9tYAAQAAAADTLWxjbXMAAAAAAAAAAAAAAAAAAAAAAAAAAAAAAAAAAAAAAAAAAAAAAAAAAAAAAAAAAAAAAAtkZXNjAAABCAAAADhjcHJ0AAABQAAAAE53dHB0AAABkAAAABRjaGFkAAABpAAAACxyWFlaAAAB0AAAABRiWFlaAAAB5AAAABRnWFlaAAAB+AAAABRyVFJDAAACDAAAACBnVFJDAAACLAAAACBiVFJDAAACTAAAACBjaHJtAAACbAAAACRtbHVjAAAAAAAAAAEAAAAMZW5VUwAAABwAAAAcAHMAUgBHAEIAIABiAHUAaQBsAHQALQBpAG4AAG1sdWMAAAAAAAAAAQAAAAxlblVTAAAAMgAAABwATgBvACAAYwBvAHAAeQByAGkAZwBoAHQALAAgAHUAcwBlACAAZgByAGUAZQBsAHkAAAAAWFlaIAAAAAAAAPbWAAEAAAAA0y1zZjMyAAAAAAABDEoAAAXj///zKgAAB5sAAP2H///7ov///aMAAAPYAADAlFhZWiAAAAAAAABvlAAAOO4AAAOQWFlaIAAAAAAAACSdAAAPgwAAtr5YWVogAAAAAAAAYqUAALeQAAAY3nBhcmEAAAAAAAMAAAACZmYAAPKnAAANWQAAE9AAAApbcGFyYQAAAAAAAwAAAAJmZgAA8qcAAA1ZAAAT0AAACltwYXJhAAAAAAADAAAAAmZmAADypwAADVkAABPQAAAKW2Nocm0AAAAAAAMAAAAAo9cAAFR7AABMzQAAmZoAACZmAAAPXP/bAEMABQMEBAQDBQQEBAUFBQYHDAgHBwcHDwsLCQwRDxISEQ8RERMWHBcTFBoVEREYIRgaHR0fHx8TFyIkIh4kHB4fHv/bAEMBBQUFBwYHDggIDh4UERQeHh4eHh4eHh4eHh4eHh4eHh4eHh4eHh4eHh4eHh4eHh4eHh4eHh4eHh4eHh4eHh4eHv/CABEIAZABkAMBIgACEQEDEQH/xAAbAAEAAgMBAQAAAAAAAAAAAAAABAUDBgcCAf/EABoBAQACAwEAAAAAAAAAAAAAAAAEBQECBgP/2gAMAwEAAhADEAAAAeygAAAAAAAAAAAAAAAAAAAAAAAAAAAAAAAAAAAAAAAAAAAAAAAAAAAAAAAAAAAAAAAAAEVrI9U9xjQM+oAAAAAAAAAAAAAAAAAAAAB8qceWetNa+RdUt1tLDMoAAAAAAAAAAAAAAAAAAABixVOI2TCawQYkXVLdbTgzKAAAAAAAAAAAAAAAAAAHlj1XYYmsMMRAAJF1S3W04MygAAAAAAAAAAAAAAAABFxrlp/HnWvB4gAASLqlutpwZlAAAAAAAAAAAAAAAAHmpx5Z641rwaAAAASLqlutpwZlAAAAAAAAAAAAAAAMWGqxG94jWCDAAAAAEi6pbracGZQAAAAAAAAAAAAA8seq3DF1hBiKAAAAAABIuqW62nBmUAAAAAAAAAAAAA03cuT1tnsCsk8zZSkVjEpFEpFEpFEqVV/fXxv2DP1vGh6eYEi6pbracGZQAAAAAAAAAAAADknW+SVl3WbTp87nOj2UQ64MAAAPd1RZ7OruXz71nHBlIuqW62nBmUAAAAAAAAAAAAA5J1vklZd0ooesuLvTNijwbERYYAAAE2z1+zv+emjoebkXVLdbTgzKAAAAAAAAAAAAAck63ySsu6UUPWPXkbVJ1PaYdZ7Hj4AAAPvxlc56K66vkJd1S3VtHDMoAAAAAAAAAAAAByTrfJKy7pRQ9YAnwGNdzUdhDrJiGxrMQxMQxMQxMz1jfz3O71Db+z5QJOAAAAAAAAAAAAAHJOt8krLulFD1gAAAAAADYbffLWgw5y75gM4AAAAAAAAAAAAAck63ySsu6UUPWAAAAACx20idJs7O95QLKmAAAAAAAAAAAAAAAck63ySsu6UUPWAAAADevaNUdLzfeh44JUIAAAAAAAAAAAAAAAByTrfJKy7pRQ9YAAAzTOozayt2Q6DkA9PIAAAAAAAAAAAAAAAAByTrfJKy7pRQ9YAPp82S33q25/DmLrmQzgAAAAAAAAAAAAAAAAAByTrfJKy7pRQ9YLPbSH0uysb7kwsacAAAAAAAAAAAAAAAAAAAByTrfJKy7pX3fKfo6fpWZ0XHBJhAAAAAAAAAAAAAAAAAAAAAOWdTwxZtHsR7Rw9PIAAAAAAAAAAAAAAAAAAAAAAAAAAAAAAAAAAAAAAAAAAAAAAAAAAAAAAAAAAAAAAAAD//xAAmEAABAwIFBAMBAAAAAAAAAAADAQIEAAUwMzVAUBATFCAREiFw/9oACAEBAAEFAv7Uqoi8gYyMoKq4/HmP0j53GqqIhjK/rHzuMI9rEIRz16x87izGRlOVXL6R87ijH94+dxDlRqGMr8CPncOR6MQj3PXAj53DGMjKcquXBj53CmPiR87g3KjUMZX4sfO4IhEYhHq9cWPncCYyMpVVVxo+dwBj7GPnb5yo1DFV+yj52+lzHed3yV3yV3yV3yV3yV3yV3yV3yV3yV3yV3yUAv294+dvr0qtu8cqFHhhJ92+sfO3181UJFERjke3CY5WuY5HN9I+dvr5qtRD9p2GEn0d6R87fXzVekE+JHJ8ekfO3181XrDP3G4ccnz1j52+vmq9WuVro5UKzCT8oL/u2o+dvr5qvoAiiIxyPbhMcrXMcjmx87fXzVfWGftOwwk+jo2bvr5qvtDko1PJBXkgryQV5IK8kFeSCvJBXkgryQV5IK8kFWcyFNvr5quxtVrJLWOEYBb6+arsLTZ/mkRETf3zVcYIyGJarUOLwV81XFgwzTCW+EGGPgr5quJarWSWoAjALg75quHabNSficJfNVwQiIYlqtQ4vD3zVcCBCNMJAhBhj4e+ar72q1kl0EQwj4i+ar6p+rabNxd81X0AIhyWq1jiJxd81Xrb4RphIEMMMfGXzVelqtRJVBEMI+Nvmqp+rabN8chdQkPerVaxxE5Bghsf/av/xAAyEQAABAIGCQMEAwAAAAAAAAABAgMEAAUREiEyQNEQExQgMDEzUXEiUpEjQWCxQ2GB/9oACAEDAQE/AfwIxgKFIwkpXCnDqKgSDqCcbYa3cMquBbAgREbR0NbuFVcU2F3Gt3BmMBQpGFVhPutbuCUVAkHOJxpHea3cCqvVsCBGm0d9rdwCrimwvBa3ePKm5HChinCmyBYtwGgUw+I2Jv7A+I2Jv7A+I2Jv7A+I2Jv7A+IXlqCpBKBQCFUjInEhuelrd48h65vGUOEawUhz3pmw2klYt4IEKNDW7x5D1zeMtDhGj1BvTeX/AM6f+56Gt3jyHrm8ZaVkqg/1vTRhs5q5Low1u8eQ9c3jLSYoGCgYMiYo0URqz9o1Z+0as/aNWftCjfWlEhi2QdqZqcUx48h65vGXBmE3An00efeBETDSPHkPXN4y3znKmWsYbImE2Mv6E7C/vAyHrm8Zbzl0m2LWPDx+o6Nby7YKQ9c3jLdfzIjUKAtNCy51z1zjg5D1zeMtyYTgC/TQ594EREaRwkh65vGWhRQqZaxhsiYTUy/oTsL+8NIeubxlDp2m2LWPDx8o6N6uXbDsXmyGE9H2hZY6xq5xt/A//8QALhEAAAMECQQCAgMAAAAAAAAAAQIDAAQFERASEyAwMTNAcRQhIlEyUkFgQkOB/9oACAECAQE/Af1wNtOkNrO4G0ndDchsZ4AbCeCGPEzGKkFUZd2F7eAGVcW6x4+4t1jx9xbrHj7i3WPH3FkYgsmcDCabJKlVKBy5UhjxTSDllU6wXoc+9Oaqb4i2dAY8U0g5oWT/AJBehT9/Sf8AygMeKaQc0qp1e4Xoa/W5apvkDBjxTSDmkQmxkjALWZvTWZvTWZvTWZvTJ2iZgMXNnRe3TA8seKaQc4LpD63kowBLsGPFNIOb5SiYZAzo4An5Hz2MU0g5vIoHWNIrO7qRAO2eyimkHN11czL9/wAMmkVMtUuzimkHNx0h8/JRgCWW0imkHNBSicZFZ0cQS8j57aKaQcsggdY0is7upEA7Z7d5d7cAKyaZUy1S/of/xAAxEAABAgIIBQMDBQEAAAAAAAABAgMAERIhMEBBUHGxIDEzUaEEEDJhkdETIkJwgYL/2gAIAQEABj8C/uoDvmMhWqATmFFH39k5dMxIVD3TltcV8CcskK1RM8Kcroo+/GnKZmJCoWCcoriuxTk8hWYmbJOTUUfe0TkkzEhULVOR1xXbJyKQrMTNunIaKPvcU3+ZiQqFyTf3WJ/DlGEYRhGEYRhGEYRhGEYRJXPjTf3lCogjaJ44i0+vEm/v6jaKQ/2ApPI2cxExwpv7+o29pH4HnafThTf39Rt7/pK/5tKJ5cCb+/qNuCir5jzaUTz9039/UbcAUkyIiljiLT6+yb+/qNuGkP8AYCk8jZzETEJv7+o24pK+BtPpCb+/qNuOg4asDHU8GOp4MdTwY6ngx1PBjqeDHU8GOp4MdTwY6ngx1PBiiiagMZcr+/qNrlTXNDPfvpAbaSEpF/f1G1xD3rBVg3+YkKhkD+o2tw22kqUcBAddkt7wnIn9RtbUWhVirARRbE1H5KPM5G/qNrUOLmhnv30gNtJCUjJH9RtaB71g0b/MSGSv6jayDbSSpRwgOOyW94Tk7+o2saLYq/ko8hFFsfuxUeZyh/UbWAccmhnviqA20kJSMMpf1G3FIQHvWDRv85W/qNuENtJKlGA45Jb3ftplj+o24KLYkkfJR5CKLYrxVictf1G3uHXZoZ8qgNtJCUjDLn9RtEhAe9YNG/zmDrbSSpRI2imuS3u/bTMVrSkBS/ke/wDdf//EACoQAAECBAYBBAMBAQAAAAAAAAEA8BEhUWEwMUBBUHEgEJGx8aHB0XCB/9oACAEBAAE/If8AaigM8g5H2EKIpsTyGcXtDNOdccdFgAvsN9XOuNjs57CqjLJsKeDnXGfQAopYnxc64vOL35nOuJKCwAX2C4DnXER9m2FVHRS2FMFzrh/oBRQWJOE51w2cXvEOdcIUlgF9gOK51wcbZtgovOWwpjOdcF9BqOixJx3OuAyUaJe9Cc615SWAXso10TnWvl6BIQncQBTgTgTgTgTgTgTgTgTgTgTgUXKpv5uda8vMRA/8KGsAEqRwwSCCDAhAtcx5Oda94oQ5P2CoR+o4YBKAvGc617xR6GivwLoQIiDEYZL3MIEEAgxB8HOte8UesIg8jm/WJHx5sreDnWveKPCdf6GJDx5Mr+rnWveKPDOwAFQOgAlSOGRIEGBCDaZj0c617xR4h04ZBUItUcjDAlAWUnOte8UeUxqtjVCYiJjDNOz5ogTiYP8ANe8Uech4dqMLK3dZW7rK3dZW7rK3dZW7rK3dZW7rK3dZW7rK3dZRAzcxIe7XvFGiBpy7u3WxnYa94o0AETAZosu5jbtsgIAAIADbgHijHyTboGUK/Re/BPFGNl2s5LcEi1uDeKMX8sLO3WVHYDhHijDAJIAESVE7UzeyAAAABIAcK8UYWU1YEJun8H94d4owZX4pE7snj44h4owDjbEP6stqwcS8UeQEACSZABe5pm9kAAAAIAZDinijxySrAL8MDO34x4o8G8BF7Kbeedxq8Uepm4XwWusoy4cc8UICABJMgAgTaczbNsgABASHHyN7A6IG/G7t+RIVKO7/ALW//9oADAMBAAIAAwAAABDzzzzzzzzzzzzzzzzzzzzzzzzzzzzzzzzzzzzzzzzzzzzzzzzzzzzzzzzzzzzzzzzzz3fzzzzzzzzzzzzzzzzzzzzzzNBXzzzzzzzzzzzzzzzzzzzzz0ABXzzzzzzzzzzzzzzzzzzz3KAABXzzzzzzzzzzzzzzzzzzpMAAABXzzzzzzzzzzzzzzzzz9AAAAABXzzzzzzzzzzzzzzzymAAAAAABXzzzzzzzzzzzzzz3GAAAAAAABXzzzzzzzzzzzzzzvjDDDDAEABXzzzzzzzzzzzzzz0UEMMMOcsBXzzzzzzzzzzzzzz0CUMMMMMYBXzzzzzzzzzzzzzz0BCsMMMMEhXzzzzzzzzzzzzzz0AAMc000133zzzzzzzzzzzzzz0AAAAAAARZzzzzzzzzzzzzzzz0AAAAAAVfzzzzzzzzzzzzzzzz0AAAAAt/zzzzzzzzzzzzzzzzz0AAABl3zzzzzzzzzzzzzzzzzz0AAIJ7zzzzzzzzzzzzzzzzzzz0AFXzzzzzzzzzzzzzzzzzzzzz0LTzzzzzzzzzzzzzzzzzzzzzyv7zzzzzzzzzzzzzzzzzzzzzzzzzzzzzzzzzzzzzzzzzzzzzzzzzzzzzzzzzzzzzzzzzz/8QAKhEAAQEFCAICAwEAAAAAAAAAAREAMVFx0SAhQEFhkaGxEDDw8WCBweH/2gAIAQMBAT8Q/AlAXMpIS/Dg73wZaMezphs5T0x1S/w9nTCEgBS39nYezpg1UXMRQXCy9nTBC73wt8Hs6YEedPTENS+29nT3kgBSxoOPpezp7w1AvBQoVQx0oDQ316jfXqN9eo316jGpJcQACDSIYcKB5ezp7+V7ZAtzaAgwNRCn+sQkL/D2dPfyvfgsy862llBJ8b7x8PZ09/K9+BAIQsdcPfEskAhCxUz+BhKGzPZ09/K9+R26LGqhkC2p2LanYtqdi2p2LHKRJ9xaKqokXLr7+V79JUKubIJROrpscFUnP38r3bHCIHksoa4c6BpvDA8r3aL3kMzJltdFwO/cTrtguV7sv0yIamjzyxoqJ+IIDB8r3YKJFzZBKJ1cx0RScJyvfgSJgeSyv/YmgNN4Yble2KdkMzJl8SA4HCp1w6DKJQIKoN+zF6ovl0B+B//EACgRAQABAQYFBQEBAAAAAAAAAAERACAwMUBh8BAhQVHRcZGh4fFgwf/aAAgBAgEBPxD+CWKGcusUs1hyzDjhyr2WMOTWKZWcOSWKWbWHIsLjDkHsucN+9OnEMdGps9xr9hr9hr9hr9hp+Q6izJSUyuOG/wBxo1zIxKwsvKdzR7+fqhBJww3+40eEnyWo4f1f549u3DDf7jR4yOg2RRkoJ/8A0O/msN/uNHiAhqEBJZ22j2grAQuJr4v9xo3KQODodX17UAAgL/caNs+crUHzvifezI7jRtRr9XoVEeZYu8DJbjRsrS5d/f0osMGT3GjYWJwdDz4oAAgym40eB0pWobnfE+9fbLbjRqFfq9Cojz9TvAy82MAy+zR4YP4P/8QAKxABAAECBQMCBgMBAAAAAAAAAREhMQBBUFFhcaGxMNEgQJHB4fAQcIHx/9oACAEBAAE/EP7qCGNGY6iUxfQdXthfrrV6OnqBLQwJUG3s++EpVVaq547p8tOLrfLh5k2c+r2/nuny026Is3wmbBs2+B3T5aYWx7GXV7YeNe6/D3T5aUoErAY+iA/b3wqqrK3fi7p8tJCrfLhtm2c+r29Duny0iX8qzfCi8LNvRd0+Wjnsezl1e2Eq3y+l3T5aKoCqAXXEvQB+3vhVZWV9Puny0Q4p3XDbPs59Xt6vdPloc3Zdm7i3Is29Z3T5aFPQdnr9sN1vl9funy0BQKoBVXC0AW3envhqy/Id0+Xz55TzcPMn1XV7fJd0+Xz6ERkVFYnIrPEcxyYeTDyYeTDyYeTDyYeTDyYeTDyYWaJcigPf4+6fL59wYkZOMMUEB/Qcvw+mzZEiZOJgwUfvHxd0+WgQ6WjMwZx+54jpqSbnDyem+cJcyTZw/dG5mO3w90+Wgw5HlaLz2ffc6GEACEiMibnpzBlo/eMG2BImZ8HdPloUO+UQrZ39cuaZkenF11W5vZ+Duny0OGMphu/W67/XePTg6Krcnv8Az3T5aHDYoqBk4F0SB+0OX4fTUsiRMnEpYKf3un8d0+WiQzB3DBnH5xFxUrPo8+m/dS5km2HxlXMx2cd0+Wiw0nslN+IeeN4MIBBCRGRPTuA0TtyYZMkImZLRob+HZVdRAsbbfSPTwYMGDBgwYMGDBDmaY5RooCu1786jDg/NSLVwP4HNsDNGgXc1bq7unw0AFTABVxODSpDsdp/1tgj4gIAWAyNPhuGCCSvPButDAKXqiU2Lfk/yM9Ph0nHI8By5uwVfq4otghVftsHdrqEOBEMrI4w5cqbTgFI0d3NW6ua10+GzZEAEq7YaiSl6dn9uczAwWAIALAafDcSMF7uwZrQwDUSSM8E7vL/Iz0+HUI5Ao8ubsFXpXFESkSr1yNhTq11CHDQGaI4C5cqbTkXsYD3W6ua1dPhrBYAlVsBiLge1P785mCbAgCANtPhvbGB5Zq2AzWmJkgTTPGHPlXaNQh1F0QqP32DsVxReJHqcuRsFDrLqEOuCZIRwTtyf5OQJQgtOruua1dPhvhcAlVsBiJCjWjY73/rbAAACACANPhsjHYrq2A3aYnGBWF+4H8ni2omnGQqABLsBa31/uv8A/9k=;imageBorder=default;" parent="1" vertex="1">
          <mxGeometry x="1020" y="757.5" width="32.32" height="32.32" as="geometry" />
        </mxCell>
        <mxCell id="nK3DnohKbSbigpCUH78E-79" value="" style="shape=image;verticalLabelPosition=bottom;labelBackgroundColor=#ffffff;verticalAlign=top;aspect=fixed;imageAspect=0;image=data:image/jpeg,/9j/4AAQSkZJRgABAQIAHAAcAAD/2wBDAAYEBQYFBAYGBQYHBwYIChAKCgkJChQODwwQFxQYGBcUFhYaHSUfGhsjHBYWICwgIyYnKSopGR8tMC0oMCUoKSj/2wBDAQcHBwoIChMKChMoGhYaKCgoKCgoKCgoKCgoKCgoKCgoKCgoKCgoKCgoKCgoKCgoKCgoKCgoKCgoKCgoKCgoKCj/wgARCAEAAQADASIAAhEBAxEB/8QAGwABAAIDAQEAAAAAAAAAAAAAAAQFAwYHAgH/xAAaAQEAAwEBAQAAAAAAAAAAAAAAAgMEBQEG/9oADAMBAAIQAxAAAAHqgAAAAB8PqLgLFCmgAAAAAAAAAAADDFiGWLaxDzJ8/THmyQC5YM4AAAAAAAAAAI/nvmTzbDR1eoRefSPY9C+aNOlTsmGBZzz191i9SpyAAAAAAAAAAApuedc59m7WzY6/b7MnK5vnZc/Wo63qS7n8hkdW45R0ty2XTaKebrble224tnefV3OAAAAAAAAVtk8lxrsXG52H6idtPOLQ6q0e/wBfAueLdg4zR1euanR7ojpWfqnM43VW+QtW8n1xzDouniShbjAAAAAAA5Fe67sXP+tp9l1ffJ56XTrubG7Vc+y6hXr7b65n0bf8rA5/K2yjpX/j218HndD2LRcn0G0WXGurWYp4v5gAAAADDm1uN3NbWpcz7XL689mtw8b2/a+bzzy8+qdO8npGPp3JPJWXV+V2k83QHMYlmXrLj+KNt7WwMObs9t9aht/Q+RCdAAAADmG88myd7Luuaf5PROt8qt3u+6zoMfz35Yyb6vbo/wB6nYW4uW2vR1mPSZ+zp5aSTZJ0RMmd7X49nsQAAABpsL9b91Fvg+r3rQ4u224dE2Df/M81Pe13y/lWMdHnT9w+vJsIAAAAAAABB8lE5Zfbhk+g0fdLmtu51jBw2t3Op5ljVEvzHwGTLLlnmh2DXjYQAAAAAAAeae5rY2Ta6NYSrizZuArbmpkEqp8WRV+pEwiyfteWdIyF6AAAAAAB8+wiD792pjrrUVmWNEPUrxbj0FJbUcglRs9iRIE6KWwAAAAAAFVa1pmmVkgkVeKxImG6pCXEvfhW5YmA+29RMLND9kf5FsCYAAAAAABjyDX81lUl56gTyHHxZSxqvNmRo9xr5ZZvUAxeJkwo7uk2A+gAAAAAAAePYqo974KHNMjFt6ocpYVOTGZ7HB7JcL3Xi6rrEAAAAAAAAAAAYsoi45wrfNoKr5bDFlAAAAAAD//EAC0QAAICAgAEBgIBBAMAAAAAAAIDAQQABRESFEAQEyEiMDMGMTQVIDVQIzJB/9oACAEBAAEFAv8AVzMRkvCMmzinc090bBDDeU5M8cBJFkVoxyeWK7ePcudgLI8FAxALiT8ghznaGC4Jxo8hJPnHtpzyAyPTwaHrE8YkowuJ50+BMqZHrHavEzW+/sK7f6vcyNzayN4/B3k4G8TgbaoWLsoZhrEsAeWO22dKLaaUqXY/pdKYnUU821YKtrX6uLdY9G2MZqrYZzWqs/1O5lXdL5EWkv7b8grcjdBb515+Q/z9B/A8J9cucOrjTeZXsUbNbK+zspyruENwZgo7LZJ8+lWdKHgUGG//AMhoP8f4tnmbDlVqlzdGWV6li2V/XspjXsurzS26ndnYDy39c6FNYbSqbJ9Vat7iNlVdlhkKRia9m8dPTpVkRwjd2fPt1tQtlG5SbULX7NtbK712F9hsv5/4+tTZ2wiGwo6yu+i7R40JWySKRqwJWRiBHNnZ6apqa3U3MMBYOz1UpyrZZVbRuLtq+e6XNc/G/wCRs547BFhVPW3tk61lHTmzN5VRXDNdszrYpgNXvLPnWtLW6ep47jW8uV3nXbSshbR8rj8pM+s0Ls08YcsZysZCmGllPdTx3tgXWdHVCxGxonTZTuNqZq6/VXP7d1R6dmutzUsCUEPyb53l0vBQ87FgKws1U2R2NEqbM0SvLoXPIJLhgG629NKT3jsLb25wtjbLJuWZzqHThMMoz8es86vk3Vjz7ilk0x1oVKWsHn2GTMRGyu0zRGHesHH7yIkpVQsthelslgaLA0taMHVU4yKNWMisiM8leQAx8m0s9LVzQVORe9Pl12pcuvas7s5x1hr5GJKU6u03E6KMVq6i8iVL7SfTNrb6uzqqU23Wr9epGw2DLmCMlNfUWW4jSoDAFKImwOTYLJac9rvbvKKxgibsChVao+zNbSDGLWitBWMJhFggRZFecPljBGSmcj9djs7sVEkUkVTXPs5V1NdOE4Aw3EXglQnDgEVJZAKYyTxaZLBGBgv+3Y3LIVUhXtbN1PVor4xwjhsI8AeYgSI4YQcEBKk2yYCMlK0wPj/72BTwjovOcRiGMdJYtRHkqEF1/twzgIY2TyYmMGSHBsTkPCclgcMj9fPM8IY/jn7lSw8H/VV+xr+GRBMJaYHLU/8AJX+kkhONXAeC/s+efSGnzkpUnkAMC1Uhi38MecSrji0yWCMDGOni1Xotr8WuWSwYBKPt+e0XAa64L+x/JxxJCMxMF4z+zZJYpHha+ut9nz2vsq/XhFAw10ni0yWN4Qc1/bwIJCxOMcMrGOaVKgPG3OVP389uPWqXq10DnuYS0wOFPCAjmZk47k48MGZGYsTkWBzzw4MPnKrHs+dg84zEjKV88iMDGWi4BVj3kUDDGyzFIyxPFlYfZKQnGiIyAEfgmOCuwarnyeIEt+fvLBczFnC1+5pLVAeEzxkeC1sdJYpGH7VxkfrsTGCg0TGQRBOLGCkYiIyxPBYzwn3uJa4DwtT7ERxb2hDBYVeMJJxnuHIccYxkng8OMPCI6gM88McfOdSO5lYTkoDOmjOmzpyzpzzpzxQ8gf63/8QAMhEAAQQABAIHBgcAAAAAAAAAAQACAwQFERIhMTITFCIwQlGRICRBgeHwUFJgYXGhsf/aAAgBAwEBPwH8DAzOSGDzEZgj7+SOEWB5J2G2W+FPrys5mnvcLsZ51nnY8FYks15DGXn1U1iSOkyRp3TMYsN45FU7Ed0nXGMwjTp2DlE7IqfC54twMx+3dMeWODh8Ffpdb0uYrFN76rYW8QpaM8XM1YG3nd/CMNWmdUx1O8lUvzWp8mjJqf1S84s8X36q3RkrHfh59zbzFL5BW3ytrxCM9rb/ABRSyVo9VtyhlbYi1s2zVunJWd2uHmm+409XicuCo4iJR0FhYhQ6sdTOX268XSytZ5qSNsjdDuCvXRT0gDNRz1sR7EjcnffxV33SpoYVRsdcj0Sj6rEKlizL2R2Qhgs54kIYI/8AMo4D0PRTHNWYDBIYz7WDV9zMfkrV10tgV4+Ge6xGrNZmAYNgFBg4jOuR3op7dVvOQf7UmNsHI1PxmY8oATsRsu8aNmZ3Fx9Vrcfj7VaB1iQManscyMQwevl9U2OpQ3ec3KbGnnaIZKWzLNzuz7trS86W8VFJBhrNJ3erGJzTbDYd8yV0fL+nv//EACsRAAICAQIDBwQDAAAAAAAAAAECAAMREjEEEyEUIDBBQlFhECIjMjNQYP/aAAgBAgEBPwH+k7Qs7Qk5ye8Dqdj4t6esRQjjOIqA2EQ8OksQ17Gcyxf2EW9W8IjIxKrOXkGJYA+owWq3nOJO01PZ+vQSypUX5g5lXXyldofwa/5JWFLnMZQ5xWIy6GwZXYH2h/LZ8D6W06fuSVW6+h377nSMwEjqJVXzIVenqJX+SzJlqcs5WVWIi9Z2lZ2ke0LfdqWI2oZ73Ev6YlYCazKXVF6xuIz0Ai1udoOGPmYOHWClB5TQvtMDvO2gZgIJ1NCbLdtovDD1RUVdvDJxCGuPxEpVfGIzv/nv/8QAOBAAAQIDBQQIBQMFAQAAAAAAAQACAxEhEBIiMVEyQEFxBBMjM1JhgZEgQmJyoTCCkhRQorHRwf/aAAgBAQAGPwL+11Wqo1Sdvdc1SiquCqVNuSuuz3mTPdU91WqLHZrA5YmzVaKbcuC895pZfbtBTs2B+5VO8EQonVv4GU0YcWJJw+kLvB/EL5D6KsOEfdYujj0csUJ45LvC3mFgisPqqiqlu9O9bslXelw5syP0ruf8iu7I/cUGQp3bs6rrOtLTOWU1gisPOi7u99pWcWF+F3x9gmtjtcHSq4VXZRGu8t2EduT6Hmv6d5xN2eVg+wL9xtqo8sr5/wBqHEhRZOc0GTlN8My8Qqtu+3R9VKL2TvwptMxucVnGUwmRW/KUHNyImF+0IfcfgedSoRjPDRdCu9GFweI5qbGk6uOSa5zmuaaUXZPIGnBBsbs3/g7nEZ4XEKE2HFc26JUKvRHFztSrkO6W6ELtYPq0qkS6dHUT3kgACyYm76nZKcbtXfhSGSut2IdE3rJtjGs9F2gw8HDJBrscLTRX4TpjcY/3lRmxYbH5EXhNRWw2hrRKg5KE94cHniCuxi+jkWEgkaGaDSTIcFCD5XS4TmgGgAeVjnDbNG8029sNxOsLXgFp4FGJ0ebofEcQr8I8xqrzKOGbdNwjn6yov2qP9ygGK6WASHEq43BD8I4oP6Tgb4eKhGE264+dgZEm+F/pB8N15pVxuxDp6oE7cTEfgMfo4p8zUIkMyIQez1Gn6z3n5ROyIWNDnO14Jz3ZuMypyc4CivwzdcEG9KbTxNTRDdeY1vBR+tbNspLWGdlyd1Zo7gmh1WjE74uthDsnfgoO+Q0cEHNMwf1bnGIZWtbqZINhtDWjgFKKwHz4rxQzk6xp4vN5OZ0hzQ06lOa1we0GjhxT8F8O9FghMHOqo5reTV37vRd/F/kqxYn8lJz3EeZsdAdmyo5fqkDZh4UGQxeceCixY0nRbhloFAH1TsmTIJ8Jz78/BWy71pDdG0skBMoFkF0jxNFiMNvqscf2aqmI71XdT5kruIfsqQYX8Qu7Z7KjQP1HOG2aNsPSHjE7Z5J48RAXWxjINbRS6OwNGrs1OLEc7mpNBJXd3B9dF20b0aF3d4/VVSbdb9o3SqmO7bRqxd03a/4rpM3D5GoAgNYDMBSaCT5LEBDH1LtS6IfYKTGsZyVJlUAC2t1/poZxHb/4sTrreJQg9FHVQh7ldkwkeLgp9Ife8mqUNrWclhHuqlUCxEBYZnzUhulO9dshFzjMlTDbrPE5Tf2rvqyUhXktLNr0VAqryUzQKQR3Ivf6DVGKRIH5jkFMjrH6uWpVckAtVIqf5UipBTNTumU113S8bvlZ8rV/4qUC8k7VCyq8kJqYmFiC0W0NyqpM97KkONjl6KTFqVM1NgWUuS2rG89x8loFKVFNuSx1VDnZM0CkLHJvJSZ7qfDVGSbuAGqmeHwYc7MQVD8F0ZKb/az13H0R52TKpQKZoEQMghI1XELFVGWZUgtTa0Jx3AFFuqk2pWpUzUolCyqwWTCqFWazU0dwkpHNZqQslqp6KZUhkpv9lyRJ4rJYTNUFjdx81oVJ/vZyX1GzzsJQmpNyU3+yO6VWGqpSyrgFhsPmp2edgGqG61CwlZTXELNCaxZLZK4riqZInedkLisytpZhcFwQH9u//8QAKhABAAIBAwIFBQADAQAAAAAAAQARITFBUWFxEECBkaGxwdHh8CAw8VD/2gAIAQEAAT8h/wDLAtAdZpC9kb8zNMRdHzeuOwnCcRWlesEuwd5vN7TUt3TUnQ8+ZrVu8M8N1NWFLpQ6JFV/YhsjML70pEzyiatp18uLE5nRfeAACg8FT2TmEY0YDF28GYPqEApt7GkyjbCRAJo+WehwL3DPeMj6mIBu94B1e9JfiAfebqeh9onHpZmto681n+A3F77gmLqm1+Xb0DJ9iZbZz2K5gEgR0T8kRp2UM0QMl5tmp5qYp8dZ/KcXcgwrOybE/qPtFAoDALzNSzg59tfLCVr+l3+0tsJtO/D08P4HLP7u3iAUBOGaVDDDuj3wKWLTkmgD6L40leYX8HWUhvI590EkXRGx8ngC/cDM1vLK5NyINZk6R5dJCuv/AIHXVfmGwRF6uNiXPq1XptHQxdn7ooKclm+0MNutvl3JiU/P1tvJ/wDBgY2+eyi8tfEwvCoAKq3Ftf0tn8ytAf8AltFjhRXp4Vl21sPWUPaXT6bwAABoEuGvB6u7/cThOPy0KlVtXVIjb57ns/ENmfXk6PkcKYMYAoNNb19JRIgDQYQmYq9e+kcFN6P3PxFVRS1PeKBaScEUIFbFXmDGOgKDws99SSiC/UOnhiKohhlWtTq/lIUou5oOGdZCtf08hVOjT7z+PrL51ntiZTxB7mCKtq43e5l2H338S3n6owQP+eD/AEB37fxDXaJJm6/d7vx6ShdekGx/c/4CObnt1J8XpJwzGE6b6/3HoZfaRKLqyjEwFYjW+lXLCg68UtdIa2Ca0lITwtO5AcAUrFufxH0qh6LnHtKC3/yj1jmmkVpezFBatdz9/wCQYAuQ/qoWbe4iEgFYm5/txB+kGX7e/j0H/czTyAEWLNjgesPZ/nD18LFMj7D6QCf9o9SU6waATGcZi7WdYr6m/CfHofeat7A+k1n3sdUu6nRwyPhYP+F8/X/bc+8Tvv8A3SJZwgSpZ9Q1ius6cD2Z+3gyEGqy2tGKYOzekVI0PRhVDFGOHGIqrW2XhcAXNbBDAfeaJvWz8Qd7t+6fK4D7TkbqvvNN9a80ZdpA6exjNtdCv9gqPr3PpHLmaWDVtuXrOSPmb+0soUwLV0/Mt+5V7NPrO1ErB6QSgaAXKp7hfRrMBR/ll/EqceZ/RpD6w4/B5RAVUGrLBdg+/rLCEzrmMYOo1T8TAvw592B2PQFsonnaz7SreovoH5lPRwahNHwR0DUF6Y8rfYTkbEEAv4MbxC3GfXWdWIWPdK9a7R7z0OZln5+Nbq4mu6cyjYkGJ9RKk2wUpxNDyV3o4PuPSNgVau7K+1dA9OZUnTv9iEbLbRNypwR6ywNuiMqhvWZKzekXzjhP3qsqTRPkQ0PIv3031xLSC4Q4JRVvawdiYE7BNcVwJRrVzUi3LK6dniVVpsIYLN3cqTbP1qni58iR0S4N4GxC0ND7welCtBMXDkArkxiq6asF+v4Xx+kxenGCoVekDxnMFoPUmsL3EtU9zw0PIFcqI+wIL6nLL3Zo+CqQyeIDcPO0wC0n61SWA4INXe5zpDOAvEBbo0gsOjyCEXQi3egmUe7KlFtesUzvyIuGDneYtNoIEHXWfvVZUmjwuHWoIlV6kWxjcoXmoL8hUD3Rlymz/D6+rTwst3DxDLJPBaFdorS7w8w6a5mlEYMR0DmDfaeQWHii/NTBfkz96rAE1giWaTIxy9sDg9xBBuhUUdRmT9XxyepB8DyHoupUzqJ+kEnXw/WqSzNi5RHdz4ARwrrFjPd2igFMOkErSQ+m9sROgRyrdqjXCtiVNy+QFX6RDgEwbQPeVJo8KHepauCXJojWQ4G8oqC5DQVCoLtvOJ9pRFW8tMx4VDpfkSNmDvBmWEN2GBBY2Sw4wnK8lQOe/BC+ecWhXQl2arcyLQGYznPky2JjzFGILQN4KAbeSpxuZ/D8zMCuPDGYhsAHh1dhAFF1moFrb4IfjPLwr5Kdm58qNiYrUOjPspMu/wC05L3geHHERwLwJWADpOh7Z/Qma0ME+j+Yc6zUIK0B2Y7MlbD2jtT6nvn8Gcob/wDnf//aAAwDAQACAAMAAAAQ88888440888888888888wg0Q08888888888q24J8088888888888ccZs3j9988888888ter9s+ab388888888+wxt0WtIS8888884/DY9nz1yne88888m/2HfB8vNdd8888uvur/AADNPPPPPPPOocBEBLHHPPPPPPPNpDPFBPCHPPPPPPOBPDBGLDAPPPPPPPKGIHHAAMEPPPPPPPLMGDMNGFDPPPPPPPPLLGEIEJPPPPPPPPPPPPDDPDHPPPPPPP/EACkRAQABAgUDBAMAAwAAAAAAAAERADEhQVFhkXGBoTCxwdEg4fBQYPH/2gAIAQMBAT8Q/wAGQJjd/UtDnxtC0swu/wB1dp9EfmrDuo+qswJJDCOz5N+tYCPuxMm9Y8XEt9da9wh9RRtAJmBnkprie2/Rh4akdxfS/E0iMPo3m0PFJPA6uiSf29PGMHTAaGlY1MfaaUE2e8/FPMxwsdvviiBBJS+GWOs0ZTAUGyxmZDzUmM5Rbvo/x6IVDCeCKZtLJMvyqOfGxBPi/Heo0Ile+k81nqrZH6axtlvUm3Bj1aFUl6uAnAXPZ33+ae7Lw6Pw/wA/khOY4z8UqGVl5oSRNsoCK6IDXt8HhphMHAHO8r4aF5aXww3df+mx2CCDE74X8ZVaF3fqs0eGk5JidTLua971kOW3Mn8nQ8DD5PxzSSxEIu44nQ89K1mQcCVf1aaKJkxyRG7+qXFwtmOJisCd6ofdW8OkvljxV5R0g9irwu77pvly0q4v45oV3QzaOOGIlYa7r3xabwv3ewW781MhGri8WPNIY3s4t6Z0JVilKzXD2nIOc4qbTaPlv7G3rEM4XPONBy7f69//xAAoEQEAAgIABAUEAwAAAAAAAAABABEhMTBBUYEQIGGR8FBgoeFxscH/2gAIAQIBAT8Q+hrRcSaR+d4J1g8aA4tFBk3DJHtE6YitWQstpgG7CYpafXhEi5+CC3QzVRqfzAVD1Pn+SxralA5nztA8b6cGj3sQSVn+/AobYVBurpNGCXEUjHnFr0R3mRbK1M42fOUzAmTP1MwZYjoYyHgVBM+bAHvHW2sRWrKxz+VNUT8R8B7V8AAaHtKuXmFXFPs9f1MKKgGVc0CuGAt1L4Y5JlHLxh+3r//EACoQAQABAgUDBAMAAwEAAAAAAAERACExQVFhcYGRoRBAscHR4fAgMPFQ/9oACAEBAAE/EP8Ay99NKKmxXb9tZAN5vFWWWsWHb3ZcT8p/VLoTZu96k5Wamg5Vzv8AigdmAfmiCAYW6b1BLSXsmnPuUgRLB8H5pGjFoP3TgayJbBwU6mOjH+xqEWeqqwOOYX7lC3m2Q271fXeSmHSaOWBZP37cHZAQww0/u9CUFAGXprTuzpWGKTfKl2QMlXYo6AzansX80u4m4MB6zUsCL3RShyEjqe2x0fAU6AZOL1PAODAMkxjWMfxWBX9oPCVHRG6fKjWDWWXwVRx0HzyVCDLIfkE81CjrNuyZpW6REkNDG27gae3IiRXaXNuj4b61B1eCEYwJg4n4oA1TA0cxK/0gt1ooSnJUgb9CgqStixF8TWpSF3l7UlEB/okj4o1ZmCedGz6HI5alBELCElvANBkuJsTy4Hb2079whYJZ6DutaSaJWXzep4dvRTsVJg7+oUsNkJGoABiSALAFZBY6xULgS6NMJiyWXefkinzfQTbA7xTjNtLO8MOoG9Dp2RgaiY+zG3F6+GjmI61MzGUtjqCnWj0HBmiR7NSBoflqQanyH1/hHd/PponE4robBdeKuOlojhYPJ4pih1VxbqsXYlos5BAEZSV4s3OsULKEjlHUpsFmFXNvge7QySXPZEIQDmyH1RNpwhdKOQdKfrQSSoYFTWWEm6y3EaWSzzohjJy58S3dGjooEBZQDmrh6ZTc4BMpaaE8VJeG8MJ/GNtqLGkAgDQKxfXG2/LEUQEezpQLqskRJZlb1e20XPVydmlRNbBe9w5W4xq1IAYLoZPsSCwSeaQDqKCRCDFHIMC4xgLYy0+Q9AtoszgjKtOOQ6kSCQl4FqQDysqOMGBTvgVBZ3LlE0QB4MBsFvQiwGPODHoS9KR0bO3ANlywcT6BbW6A4oEwzgTr9mJnONZAauNMZnkyqdEAHXPtZP3b2AKpWW048VLah8a2r/icUcBXUInyMcN6nJWCTx13gtzRqHuDB30832Kb2i0NyKM3lu5mfRI5cTZLe5braRRoJlfh0dmpe5AhtmeiH7KwWxKXg8QzyvXHGoUgkvrPTUyxLYMfVceUGY0o2aGc2O2jmf7oI51Ocj9Uocsqua1NfH6AVZC7MmZhTgjHCCRWDSWo45ISkLSygypLK2yXoRoyQWtHdm8nZq94mRXSdPCpaZdsoUrJId6DKswmPwDzibDANyMQgdEtzhTsFYxA4PKDhaLFv8G5DhRu1cVsaOV00uaUlEGHum5ids6D0d6RCRP9pvGOTPGPA9SnXe1h90PwogA/e9OA5AOjF+mFTQktqPwfLHUKtJLtYn4A9agzQZ0cpMzKnKi4ANKl0FkkhsbXbVOx29vDR169PtWAXh8IpC/2DOw15xn908WMQj0X0WScbbrbnRfw/wBpwmrbZDf3twKTvMLK/g3qa9wYqRuSS701q2c/K/SFhErgDdakFsCUeBZY70DgRnIdmKLz6OMsQjbmnLkZVZWiitgpPQpo4gAI4IokqEc1CF0CeaLCrWD5fpUMvZwngPmovqPCWVHzOL5zXgVX1QUCNvxVa6USa8f7BallzmfBL2M6SilW6udJEULF5b9Q7G9HMQG8nh0kSCHTgAGzigtWW8DvQLOtJiiZOxMB0Ks5WWTwFR412j+NKJuRC+SkgCM7Lq+lZfUiB4R7QSglRgDVpV6/rib814DSjbQMDPIOrnodKj8gAGDAchzfas2IwphJTFhcAKYGMKJwFTKG+S7GWeYqLU4i+4prqIKeYu1b3NcFYFG92sPP8ZVLMrehkH2ecmFY+HJz25oOCupKG2Zod4JQslRNyzHguhxKVKl7kbW6zwS0Fj3e3qu9AqJwiE7k4vWsU/g0KMRTyWKCnCGQ7tWgq7nFNTExsHQoav4OaR3FIxXgHskyCK7w57Ty21hHTnpUZVrMvV9DZj0Eb0azdJWO2HvNATEILQ2nDtUuHTvmg2Q3vLnUsyMQhOal/AMzjrUmmng4uFRx6Jw661FS/wBEUNH8nNKV3fNW8XsZEzgHZj7cirH5rwmA4obZ4t6NxtQFOydZd6lXjzLHLSydEj90wInEuVR71NO1WkkwMaGEYOjoG8QjnbShq/g5qKh/oj1Ujq0YWw9gR/Fo5Wl7dW1BLCZTpoceq2dLFF4ygNwyIyqXm0hu8tInYd01o+Q3+rSuJS8PpiYOAxaSU6RfnWnpgzLMoAiLQwfqooF1IaxZv4woSlA2xdqCWDGvAPYLDnirUlLrMXjShjpTdI7rRw44iIdM6CCDCphsHdKkZgzPUqXgw3K41pLDFly50qKh/oitoM6y0MAEkR5akUWso8YUAFWm4Vf0glgwK3q+T2ChgEq5FLEoekfmkybVYvFOo4gN+qnjhvamOJ0ODnWjMaJA31w7UmALAONRUv8ARFDR+R59NiPBb6qJtrHvehmxwOQ4qfKrNwvGtRHjAubcxqKaK9hfYOqup4H7+KB+UBkXegAAIDAPXqf+uvHpJWuQ6K37EPoWGBLSYyStC4kAGPL8Vgrc/P8AFAAABYDKtUw7A1fdV+vv2DJ5A+WoWsZz2PSJsZGbxUhNpmPKoqX+iKKFYemPmafcwOri8NEkZFLT1zqFCOB/FNgAyEROtFeLwTQgozXlx6zaQV/dKn0gd3/PYIHLMvS/20LiPIP7xUvBrfxNBml2D6Kiof6IocNNRrkZ/k+gUVG5gpEiQ2G7gpPhLJzrLSJiajjc1KscfgSgIMhgUtOSAIDIqRcfGH/fYWjFutHKiAUQ0DBvEMXFDR+R59IAfpH8VN5axy/qaejyNXioLpYMblRwYuJkOfxR4CRjv904yIIE2P8ArV+u6uPGFRPxsQQ60MmDFWCmzWtD5L+xtUNbVs1DgvI1CjsCzyZUZEmCMjULGbX7808SGo0GBNSa+cthqYF7FnxpROoCWmxQu6oqBUnXPzT4F2tQkLBiDHrRohcAQDgUmOkBQ4SAHsoVxk5nDU0uzk/NPjP35DSqy3aPGcxYXYmtjIc/SPDkeuPiaidVyVLFxnhTLBrvHpp6Qw3keD9xUQiyn0/ce1j2+pc61NLuhJUtAGrnxjQ2z1FNMNANCgJOIRNEUVmRNGiPAB+aExDkfmt+gblASVdc0L5fr3ABAE0a87gj4r+MTmmYbkGsyuY/dZocyfVJZ3V+K3P64qZYzo1f/O//2Q==;imageBorder=#666666;" parent="1" vertex="1">
          <mxGeometry x="1383.31" y="52.03" width="28.31" height="28.31" as="geometry" />
        </mxCell>
        <mxCell id="nK3DnohKbSbigpCUH78E-80" value="" style="shape=image;verticalLabelPosition=bottom;labelBackgroundColor=#ffffff;verticalAlign=top;aspect=fixed;imageAspect=0;image=data:image/jpeg,/9j/4AAQSkZJRgABAQIAHAAcAAD/2wBDAAYEBQYFBAYGBQYHBwYIChAKCgkJChQODwwQFxQYGBcUFhYaHSUfGhsjHBYWICwgIyYnKSopGR8tMC0oMCUoKSj/2wBDAQcHBwoIChMKChMoGhYaKCgoKCgoKCgoKCgoKCgoKCgoKCgoKCgoKCgoKCgoKCgoKCgoKCgoKCgoKCgoKCgoKCj/wgARCAEAAQADASIAAhEBAxEB/8QAGwABAAIDAQEAAAAAAAAAAAAAAAQFAwYHAgH/xAAaAQEAAwEBAQAAAAAAAAAAAAAAAgMEBQEG/9oADAMBAAIQAxAAAAHqgAAAAB8PqLgLFCmgAAAAAAAAAAADDFiGWLaxDzJ8/THmyQC5YM4AAAAAAAAAAI/nvmTzbDR1eoRefSPY9C+aNOlTsmGBZzz191i9SpyAAAAAAAAAAApuedc59m7WzY6/b7MnK5vnZc/Wo63qS7n8hkdW45R0ty2XTaKebrble224tnefV3OAAAAAAAAVtk8lxrsXG52H6idtPOLQ6q0e/wBfAueLdg4zR1euanR7ojpWfqnM43VW+QtW8n1xzDouniShbjAAAAAAA5Fe67sXP+tp9l1ffJ56XTrubG7Vc+y6hXr7b65n0bf8rA5/K2yjpX/j218HndD2LRcn0G0WXGurWYp4v5gAAAADDm1uN3NbWpcz7XL689mtw8b2/a+bzzy8+qdO8npGPp3JPJWXV+V2k83QHMYlmXrLj+KNt7WwMObs9t9aht/Q+RCdAAAADmG88myd7Luuaf5PROt8qt3u+6zoMfz35Yyb6vbo/wB6nYW4uW2vR1mPSZ+zp5aSTZJ0RMmd7X49nsQAAABpsL9b91Fvg+r3rQ4u224dE2Df/M81Pe13y/lWMdHnT9w+vJsIAAAAAAABB8lE5Zfbhk+g0fdLmtu51jBw2t3Op5ljVEvzHwGTLLlnmh2DXjYQAAAAAAAeae5rY2Ta6NYSrizZuArbmpkEqp8WRV+pEwiyfteWdIyF6AAAAAAB8+wiD792pjrrUVmWNEPUrxbj0FJbUcglRs9iRIE6KWwAAAAAAFVa1pmmVkgkVeKxImG6pCXEvfhW5YmA+29RMLND9kf5FsCYAAAAAABjyDX81lUl56gTyHHxZSxqvNmRo9xr5ZZvUAxeJkwo7uk2A+gAAAAAAAePYqo974KHNMjFt6ocpYVOTGZ7HB7JcL3Xi6rrEAAAAAAAAAAAYsoi45wrfNoKr5bDFlAAAAAAD//EAC0QAAICAgAEBgIBBAMAAAAAAAIDAQQABRESFEAQEyEiMDMGMTQVIDVQIzJB/9oACAEBAAEFAv8AVzMRkvCMmzinc090bBDDeU5M8cBJFkVoxyeWK7ePcudgLI8FAxALiT8ghznaGC4Jxo8hJPnHtpzyAyPTwaHrE8YkowuJ50+BMqZHrHavEzW+/sK7f6vcyNzayN4/B3k4G8TgbaoWLsoZhrEsAeWO22dKLaaUqXY/pdKYnUU821YKtrX6uLdY9G2MZqrYZzWqs/1O5lXdL5EWkv7b8grcjdBb515+Q/z9B/A8J9cucOrjTeZXsUbNbK+zspyruENwZgo7LZJ8+lWdKHgUGG//AMhoP8f4tnmbDlVqlzdGWV6li2V/XspjXsurzS26ndnYDy39c6FNYbSqbJ9Vat7iNlVdlhkKRia9m8dPTpVkRwjd2fPt1tQtlG5SbULX7NtbK712F9hsv5/4+tTZ2wiGwo6yu+i7R40JWySKRqwJWRiBHNnZ6apqa3U3MMBYOz1UpyrZZVbRuLtq+e6XNc/G/wCRs547BFhVPW3tk61lHTmzN5VRXDNdszrYpgNXvLPnWtLW6ep47jW8uV3nXbSshbR8rj8pM+s0Ls08YcsZysZCmGllPdTx3tgXWdHVCxGxonTZTuNqZq6/VXP7d1R6dmutzUsCUEPyb53l0vBQ87FgKws1U2R2NEqbM0SvLoXPIJLhgG629NKT3jsLb25wtjbLJuWZzqHThMMoz8es86vk3Vjz7ilk0x1oVKWsHn2GTMRGyu0zRGHesHH7yIkpVQsthelslgaLA0taMHVU4yKNWMisiM8leQAx8m0s9LVzQVORe9Pl12pcuvas7s5x1hr5GJKU6u03E6KMVq6i8iVL7SfTNrb6uzqqU23Wr9epGw2DLmCMlNfUWW4jSoDAFKImwOTYLJac9rvbvKKxgibsChVao+zNbSDGLWitBWMJhFggRZFecPljBGSmcj9djs7sVEkUkVTXPs5V1NdOE4Aw3EXglQnDgEVJZAKYyTxaZLBGBgv+3Y3LIVUhXtbN1PVor4xwjhsI8AeYgSI4YQcEBKk2yYCMlK0wPj/72BTwjovOcRiGMdJYtRHkqEF1/twzgIY2TyYmMGSHBsTkPCclgcMj9fPM8IY/jn7lSw8H/VV+xr+GRBMJaYHLU/8AJX+kkhONXAeC/s+efSGnzkpUnkAMC1Uhi38MecSrji0yWCMDGOni1Xotr8WuWSwYBKPt+e0XAa64L+x/JxxJCMxMF4z+zZJYpHha+ut9nz2vsq/XhFAw10ni0yWN4Qc1/bwIJCxOMcMrGOaVKgPG3OVP389uPWqXq10DnuYS0wOFPCAjmZk47k48MGZGYsTkWBzzw4MPnKrHs+dg84zEjKV88iMDGWi4BVj3kUDDGyzFIyxPFlYfZKQnGiIyAEfgmOCuwarnyeIEt+fvLBczFnC1+5pLVAeEzxkeC1sdJYpGH7VxkfrsTGCg0TGQRBOLGCkYiIyxPBYzwn3uJa4DwtT7ERxb2hDBYVeMJJxnuHIccYxkng8OMPCI6gM88McfOdSO5lYTkoDOmjOmzpyzpzzpzxQ8gf63/8QAMhEAAQQABAIHBgcAAAAAAAAAAQACAwQFERIhMTITFCIwQlGRICRBgeHwUFJgYXGhsf/aAAgBAwEBPwH8DAzOSGDzEZgj7+SOEWB5J2G2W+FPrys5mnvcLsZ51nnY8FYks15DGXn1U1iSOkyRp3TMYsN45FU7Ed0nXGMwjTp2DlE7IqfC54twMx+3dMeWODh8Ffpdb0uYrFN76rYW8QpaM8XM1YG3nd/CMNWmdUx1O8lUvzWp8mjJqf1S84s8X36q3RkrHfh59zbzFL5BW3ytrxCM9rb/ABRSyVo9VtyhlbYi1s2zVunJWd2uHmm+409XicuCo4iJR0FhYhQ6sdTOX268XSytZ5qSNsjdDuCvXRT0gDNRz1sR7EjcnffxV33SpoYVRsdcj0Sj6rEKlizL2R2Qhgs54kIYI/8AMo4D0PRTHNWYDBIYz7WDV9zMfkrV10tgV4+Ge6xGrNZmAYNgFBg4jOuR3op7dVvOQf7UmNsHI1PxmY8oATsRsu8aNmZ3Fx9Vrcfj7VaB1iQManscyMQwevl9U2OpQ3ec3KbGnnaIZKWzLNzuz7trS86W8VFJBhrNJ3erGJzTbDYd8yV0fL+nv//EACsRAAICAQIDBwQDAAAAAAAAAAECAAMREjEEEyEUIDBBQlFhECIjMjNQYP/aAAgBAgEBPwH+k7Qs7Qk5ye8Dqdj4t6esRQjjOIqA2EQ8OksQ17Gcyxf2EW9W8IjIxKrOXkGJYA+owWq3nOJO01PZ+vQSypUX5g5lXXyldofwa/5JWFLnMZQ5xWIy6GwZXYH2h/LZ8D6W06fuSVW6+h377nSMwEjqJVXzIVenqJX+SzJlqcs5WVWIi9Z2lZ2ke0LfdqWI2oZ73Ev6YlYCazKXVF6xuIz0Ai1udoOGPmYOHWClB5TQvtMDvO2gZgIJ1NCbLdtovDD1RUVdvDJxCGuPxEpVfGIzv/nv/8QAOBAAAQIDBQQIBQMFAQAAAAAAAQACAxEhEBIiMVEyQEFxBBMjM1JhgZEgQmJyoTCCkhRQorHRwf/aAAgBAQAGPwL+11Wqo1Sdvdc1SiquCqVNuSuuz3mTPdU91WqLHZrA5YmzVaKbcuC895pZfbtBTs2B+5VO8EQonVv4GU0YcWJJw+kLvB/EL5D6KsOEfdYujj0csUJ45LvC3mFgisPqqiqlu9O9bslXelw5syP0ruf8iu7I/cUGQp3bs6rrOtLTOWU1gisPOi7u99pWcWF+F3x9gmtjtcHSq4VXZRGu8t2EduT6Hmv6d5xN2eVg+wL9xtqo8sr5/wBqHEhRZOc0GTlN8My8Qqtu+3R9VKL2TvwptMxucVnGUwmRW/KUHNyImF+0IfcfgedSoRjPDRdCu9GFweI5qbGk6uOSa5zmuaaUXZPIGnBBsbs3/g7nEZ4XEKE2HFc26JUKvRHFztSrkO6W6ELtYPq0qkS6dHUT3kgACyYm76nZKcbtXfhSGSut2IdE3rJtjGs9F2gw8HDJBrscLTRX4TpjcY/3lRmxYbH5EXhNRWw2hrRKg5KE94cHniCuxi+jkWEgkaGaDSTIcFCD5XS4TmgGgAeVjnDbNG8029sNxOsLXgFp4FGJ0ebofEcQr8I8xqrzKOGbdNwjn6yov2qP9ygGK6WASHEq43BD8I4oP6Tgb4eKhGE264+dgZEm+F/pB8N15pVxuxDp6oE7cTEfgMfo4p8zUIkMyIQez1Gn6z3n5ROyIWNDnO14Jz3ZuMypyc4CivwzdcEG9KbTxNTRDdeY1vBR+tbNspLWGdlyd1Zo7gmh1WjE74uthDsnfgoO+Q0cEHNMwf1bnGIZWtbqZINhtDWjgFKKwHz4rxQzk6xp4vN5OZ0hzQ06lOa1we0GjhxT8F8O9FghMHOqo5reTV37vRd/F/kqxYn8lJz3EeZsdAdmyo5fqkDZh4UGQxeceCixY0nRbhloFAH1TsmTIJ8Jz78/BWy71pDdG0skBMoFkF0jxNFiMNvqscf2aqmI71XdT5kruIfsqQYX8Qu7Z7KjQP1HOG2aNsPSHjE7Z5J48RAXWxjINbRS6OwNGrs1OLEc7mpNBJXd3B9dF20b0aF3d4/VVSbdb9o3SqmO7bRqxd03a/4rpM3D5GoAgNYDMBSaCT5LEBDH1LtS6IfYKTGsZyVJlUAC2t1/poZxHb/4sTrreJQg9FHVQh7ldkwkeLgp9Ife8mqUNrWclhHuqlUCxEBYZnzUhulO9dshFzjMlTDbrPE5Tf2rvqyUhXktLNr0VAqryUzQKQR3Ivf6DVGKRIH5jkFMjrH6uWpVckAtVIqf5UipBTNTumU113S8bvlZ8rV/4qUC8k7VCyq8kJqYmFiC0W0NyqpM97KkONjl6KTFqVM1NgWUuS2rG89x8loFKVFNuSx1VDnZM0CkLHJvJSZ7qfDVGSbuAGqmeHwYc7MQVD8F0ZKb/az13H0R52TKpQKZoEQMghI1XELFVGWZUgtTa0Jx3AFFuqk2pWpUzUolCyqwWTCqFWazU0dwkpHNZqQslqp6KZUhkpv9lyRJ4rJYTNUFjdx81oVJ/vZyX1GzzsJQmpNyU3+yO6VWGqpSyrgFhsPmp2edgGqG61CwlZTXELNCaxZLZK4riqZInedkLisytpZhcFwQH9u//8QAKhABAAIBAwIFBQADAQAAAAAAAQARITFBUWFxEECBkaGxwdHh8CAw8VD/2gAIAQEAAT8h/wDLAtAdZpC9kb8zNMRdHzeuOwnCcRWlesEuwd5vN7TUt3TUnQ8+ZrVu8M8N1NWFLpQ6JFV/YhsjML70pEzyiatp18uLE5nRfeAACg8FT2TmEY0YDF28GYPqEApt7GkyjbCRAJo+WehwL3DPeMj6mIBu94B1e9JfiAfebqeh9onHpZmto681n+A3F77gmLqm1+Xb0DJ9iZbZz2K5gEgR0T8kRp2UM0QMl5tmp5qYp8dZ/KcXcgwrOybE/qPtFAoDALzNSzg59tfLCVr+l3+0tsJtO/D08P4HLP7u3iAUBOGaVDDDuj3wKWLTkmgD6L40leYX8HWUhvI590EkXRGx8ngC/cDM1vLK5NyINZk6R5dJCuv/AIHXVfmGwRF6uNiXPq1XptHQxdn7ooKclm+0MNutvl3JiU/P1tvJ/wDBgY2+eyi8tfEwvCoAKq3Ftf0tn8ytAf8AltFjhRXp4Vl21sPWUPaXT6bwAABoEuGvB6u7/cThOPy0KlVtXVIjb57ns/ENmfXk6PkcKYMYAoNNb19JRIgDQYQmYq9e+kcFN6P3PxFVRS1PeKBaScEUIFbFXmDGOgKDws99SSiC/UOnhiKohhlWtTq/lIUou5oOGdZCtf08hVOjT7z+PrL51ntiZTxB7mCKtq43e5l2H338S3n6owQP+eD/AEB37fxDXaJJm6/d7vx6ShdekGx/c/4CObnt1J8XpJwzGE6b6/3HoZfaRKLqyjEwFYjW+lXLCg68UtdIa2Ca0lITwtO5AcAUrFufxH0qh6LnHtKC3/yj1jmmkVpezFBatdz9/wCQYAuQ/qoWbe4iEgFYm5/txB+kGX7e/j0H/czTyAEWLNjgesPZ/nD18LFMj7D6QCf9o9SU6waATGcZi7WdYr6m/CfHofeat7A+k1n3sdUu6nRwyPhYP+F8/X/bc+8Tvv8A3SJZwgSpZ9Q1ius6cD2Z+3gyEGqy2tGKYOzekVI0PRhVDFGOHGIqrW2XhcAXNbBDAfeaJvWz8Qd7t+6fK4D7TkbqvvNN9a80ZdpA6exjNtdCv9gqPr3PpHLmaWDVtuXrOSPmb+0soUwLV0/Mt+5V7NPrO1ErB6QSgaAXKp7hfRrMBR/ll/EqceZ/RpD6w4/B5RAVUGrLBdg+/rLCEzrmMYOo1T8TAvw592B2PQFsonnaz7SreovoH5lPRwahNHwR0DUF6Y8rfYTkbEEAv4MbxC3GfXWdWIWPdK9a7R7z0OZln5+Nbq4mu6cyjYkGJ9RKk2wUpxNDyV3o4PuPSNgVau7K+1dA9OZUnTv9iEbLbRNypwR6ywNuiMqhvWZKzekXzjhP3qsqTRPkQ0PIv3031xLSC4Q4JRVvawdiYE7BNcVwJRrVzUi3LK6dniVVpsIYLN3cqTbP1qni58iR0S4N4GxC0ND7welCtBMXDkArkxiq6asF+v4Xx+kxenGCoVekDxnMFoPUmsL3EtU9zw0PIFcqI+wIL6nLL3Zo+CqQyeIDcPO0wC0n61SWA4INXe5zpDOAvEBbo0gsOjyCEXQi3egmUe7KlFtesUzvyIuGDneYtNoIEHXWfvVZUmjwuHWoIlV6kWxjcoXmoL8hUD3Rlymz/D6+rTwst3DxDLJPBaFdorS7w8w6a5mlEYMR0DmDfaeQWHii/NTBfkz96rAE1giWaTIxy9sDg9xBBuhUUdRmT9XxyepB8DyHoupUzqJ+kEnXw/WqSzNi5RHdz4ARwrrFjPd2igFMOkErSQ+m9sROgRyrdqjXCtiVNy+QFX6RDgEwbQPeVJo8KHepauCXJojWQ4G8oqC5DQVCoLtvOJ9pRFW8tMx4VDpfkSNmDvBmWEN2GBBY2Sw4wnK8lQOe/BC+ecWhXQl2arcyLQGYznPky2JjzFGILQN4KAbeSpxuZ/D8zMCuPDGYhsAHh1dhAFF1moFrb4IfjPLwr5Kdm58qNiYrUOjPspMu/wC05L3geHHERwLwJWADpOh7Z/Qma0ME+j+Yc6zUIK0B2Y7MlbD2jtT6nvn8Gcob/wDnf//aAAwDAQACAAMAAAAQ88888440888888888888wg0Q08888888888q24J8088888888888ccZs3j9988888888ter9s+ab388888888+wxt0WtIS8888884/DY9nz1yne88888m/2HfB8vNdd8888uvur/AADNPPPPPPPOocBEBLHHPPPPPPPNpDPFBPCHPPPPPPOBPDBGLDAPPPPPPPKGIHHAAMEPPPPPPPLMGDMNGFDPPPPPPPPLLGEIEJPPPPPPPPPPPPDDPDHPPPPPPP/EACkRAQABAgUDBAMAAwAAAAAAAAERADEhQVFhkXGBoTCxwdEg4fBQYPH/2gAIAQMBAT8Q/wAGQJjd/UtDnxtC0swu/wB1dp9EfmrDuo+qswJJDCOz5N+tYCPuxMm9Y8XEt9da9wh9RRtAJmBnkprie2/Rh4akdxfS/E0iMPo3m0PFJPA6uiSf29PGMHTAaGlY1MfaaUE2e8/FPMxwsdvviiBBJS+GWOs0ZTAUGyxmZDzUmM5Rbvo/x6IVDCeCKZtLJMvyqOfGxBPi/Heo0Ile+k81nqrZH6axtlvUm3Bj1aFUl6uAnAXPZ33+ae7Lw6Pw/wA/khOY4z8UqGVl5oSRNsoCK6IDXt8HhphMHAHO8r4aF5aXww3df+mx2CCDE74X8ZVaF3fqs0eGk5JidTLua971kOW3Mn8nQ8DD5PxzSSxEIu44nQ89K1mQcCVf1aaKJkxyRG7+qXFwtmOJisCd6ofdW8OkvljxV5R0g9irwu77pvly0q4v45oV3QzaOOGIlYa7r3xabwv3ewW781MhGri8WPNIY3s4t6Z0JVilKzXD2nIOc4qbTaPlv7G3rEM4XPONBy7f69//xAAoEQEAAgIABAUEAwAAAAAAAAABABEhMTBBUYEQIGGR8FBgoeFxscH/2gAIAQIBAT8Q+hrRcSaR+d4J1g8aA4tFBk3DJHtE6YitWQstpgG7CYpafXhEi5+CC3QzVRqfzAVD1Pn+SxralA5nztA8b6cGj3sQSVn+/AobYVBurpNGCXEUjHnFr0R3mRbK1M42fOUzAmTP1MwZYjoYyHgVBM+bAHvHW2sRWrKxz+VNUT8R8B7V8AAaHtKuXmFXFPs9f1MKKgGVc0CuGAt1L4Y5JlHLxh+3r//EACoQAQABAgUDBAMAAwEAAAAAAAERACExQVFhcYGRoRBAscHR4fAgMPFQ/9oACAEBAAE/EP8Ay99NKKmxXb9tZAN5vFWWWsWHb3ZcT8p/VLoTZu96k5Wamg5Vzv8AigdmAfmiCAYW6b1BLSXsmnPuUgRLB8H5pGjFoP3TgayJbBwU6mOjH+xqEWeqqwOOYX7lC3m2Q271fXeSmHSaOWBZP37cHZAQww0/u9CUFAGXprTuzpWGKTfKl2QMlXYo6AzansX80u4m4MB6zUsCL3RShyEjqe2x0fAU6AZOL1PAODAMkxjWMfxWBX9oPCVHRG6fKjWDWWXwVRx0HzyVCDLIfkE81CjrNuyZpW6REkNDG27gae3IiRXaXNuj4b61B1eCEYwJg4n4oA1TA0cxK/0gt1ooSnJUgb9CgqStixF8TWpSF3l7UlEB/okj4o1ZmCedGz6HI5alBELCElvANBkuJsTy4Hb2079whYJZ6DutaSaJWXzep4dvRTsVJg7+oUsNkJGoABiSALAFZBY6xULgS6NMJiyWXefkinzfQTbA7xTjNtLO8MOoG9Dp2RgaiY+zG3F6+GjmI61MzGUtjqCnWj0HBmiR7NSBoflqQanyH1/hHd/PponE4robBdeKuOlojhYPJ4pih1VxbqsXYlos5BAEZSV4s3OsULKEjlHUpsFmFXNvge7QySXPZEIQDmyH1RNpwhdKOQdKfrQSSoYFTWWEm6y3EaWSzzohjJy58S3dGjooEBZQDmrh6ZTc4BMpaaE8VJeG8MJ/GNtqLGkAgDQKxfXG2/LEUQEezpQLqskRJZlb1e20XPVydmlRNbBe9w5W4xq1IAYLoZPsSCwSeaQDqKCRCDFHIMC4xgLYy0+Q9AtoszgjKtOOQ6kSCQl4FqQDysqOMGBTvgVBZ3LlE0QB4MBsFvQiwGPODHoS9KR0bO3ANlywcT6BbW6A4oEwzgTr9mJnONZAauNMZnkyqdEAHXPtZP3b2AKpWW048VLah8a2r/icUcBXUInyMcN6nJWCTx13gtzRqHuDB30832Kb2i0NyKM3lu5mfRI5cTZLe5braRRoJlfh0dmpe5AhtmeiH7KwWxKXg8QzyvXHGoUgkvrPTUyxLYMfVceUGY0o2aGc2O2jmf7oI51Ocj9Uocsqua1NfH6AVZC7MmZhTgjHCCRWDSWo45ISkLSygypLK2yXoRoyQWtHdm8nZq94mRXSdPCpaZdsoUrJId6DKswmPwDzibDANyMQgdEtzhTsFYxA4PKDhaLFv8G5DhRu1cVsaOV00uaUlEGHum5ids6D0d6RCRP9pvGOTPGPA9SnXe1h90PwogA/e9OA5AOjF+mFTQktqPwfLHUKtJLtYn4A9agzQZ0cpMzKnKi4ANKl0FkkhsbXbVOx29vDR169PtWAXh8IpC/2DOw15xn908WMQj0X0WScbbrbnRfw/wBpwmrbZDf3twKTvMLK/g3qa9wYqRuSS701q2c/K/SFhErgDdakFsCUeBZY70DgRnIdmKLz6OMsQjbmnLkZVZWiitgpPQpo4gAI4IokqEc1CF0CeaLCrWD5fpUMvZwngPmovqPCWVHzOL5zXgVX1QUCNvxVa6USa8f7BallzmfBL2M6SilW6udJEULF5b9Q7G9HMQG8nh0kSCHTgAGzigtWW8DvQLOtJiiZOxMB0Ks5WWTwFR412j+NKJuRC+SkgCM7Lq+lZfUiB4R7QSglRgDVpV6/rib814DSjbQMDPIOrnodKj8gAGDAchzfas2IwphJTFhcAKYGMKJwFTKG+S7GWeYqLU4i+4prqIKeYu1b3NcFYFG92sPP8ZVLMrehkH2ecmFY+HJz25oOCupKG2Zod4JQslRNyzHguhxKVKl7kbW6zwS0Fj3e3qu9AqJwiE7k4vWsU/g0KMRTyWKCnCGQ7tWgq7nFNTExsHQoav4OaR3FIxXgHskyCK7w57Ty21hHTnpUZVrMvV9DZj0Eb0azdJWO2HvNATEILQ2nDtUuHTvmg2Q3vLnUsyMQhOal/AMzjrUmmng4uFRx6Jw661FS/wBEUNH8nNKV3fNW8XsZEzgHZj7cirH5rwmA4obZ4t6NxtQFOydZd6lXjzLHLSydEj90wInEuVR71NO1WkkwMaGEYOjoG8QjnbShq/g5qKh/oj1Ujq0YWw9gR/Fo5Wl7dW1BLCZTpoceq2dLFF4ygNwyIyqXm0hu8tInYd01o+Q3+rSuJS8PpiYOAxaSU6RfnWnpgzLMoAiLQwfqooF1IaxZv4woSlA2xdqCWDGvAPYLDnirUlLrMXjShjpTdI7rRw44iIdM6CCDCphsHdKkZgzPUqXgw3K41pLDFly50qKh/oitoM6y0MAEkR5akUWso8YUAFWm4Vf0glgwK3q+T2ChgEq5FLEoekfmkybVYvFOo4gN+qnjhvamOJ0ODnWjMaJA31w7UmALAONRUv8ARFDR+R59NiPBb6qJtrHvehmxwOQ4qfKrNwvGtRHjAubcxqKaK9hfYOqup4H7+KB+UBkXegAAIDAPXqf+uvHpJWuQ6K37EPoWGBLSYyStC4kAGPL8Vgrc/P8AFAAABYDKtUw7A1fdV+vv2DJ5A+WoWsZz2PSJsZGbxUhNpmPKoqX+iKKFYemPmafcwOri8NEkZFLT1zqFCOB/FNgAyEROtFeLwTQgozXlx6zaQV/dKn0gd3/PYIHLMvS/20LiPIP7xUvBrfxNBml2D6Kiof6IocNNRrkZ/k+gUVG5gpEiQ2G7gpPhLJzrLSJiajjc1KscfgSgIMhgUtOSAIDIqRcfGH/fYWjFutHKiAUQ0DBvEMXFDR+R59IAfpH8VN5axy/qaejyNXioLpYMblRwYuJkOfxR4CRjv904yIIE2P8ArV+u6uPGFRPxsQQ60MmDFWCmzWtD5L+xtUNbVs1DgvI1CjsCzyZUZEmCMjULGbX7808SGo0GBNSa+cthqYF7FnxpROoCWmxQu6oqBUnXPzT4F2tQkLBiDHrRohcAQDgUmOkBQ4SAHsoVxk5nDU0uzk/NPjP35DSqy3aPGcxYXYmtjIc/SPDkeuPiaidVyVLFxnhTLBrvHpp6Qw3keD9xUQiyn0/ce1j2+pc61NLuhJUtAGrnxjQ2z1FNMNANCgJOIRNEUVmRNGiPAB+aExDkfmt+gblASVdc0L5fr3ABAE0a87gj4r+MTmmYbkGsyuY/dZocyfVJZ3V+K3P64qZYzo1f/O//2Q==;imageBorder=#666666;" parent="1" vertex="1">
          <mxGeometry x="1383.31" y="226.5" width="28.31" height="28.31" as="geometry" />
        </mxCell>
        <mxCell id="PcnibOVChp5ECEz_akHt-10" value="" style="rounded=1;whiteSpace=wrap;html=1;dashed=1;fontColor=#2F6496;strokeColor=#000000;fillColor=none;" parent="1" vertex="1">
          <mxGeometry x="810" y="130" width="202" height="140" as="geometry" />
        </mxCell>
        <mxCell id="PcnibOVChp5ECEz_akHt-11" style="edgeStyle=orthogonalEdgeStyle;rounded=0;orthogonalLoop=1;jettySize=auto;html=1;entryX=0;entryY=0.5;entryDx=0;entryDy=0;strokeColor=#2E2E2E;strokeWidth=1;" parent="1" source="PcnibOVChp5ECEz_akHt-13" target="kyE_ZreP79h8OeemXXtl-38" edge="1">
          <mxGeometry relative="1" as="geometry">
            <mxPoint x="1100" y="205" as="targetPoint" />
          </mxGeometry>
        </mxCell>
        <mxCell id="PcnibOVChp5ECEz_akHt-12" value="Proxies requests&lt;br&gt;[HTTP]" style="edgeLabel;html=1;align=center;verticalAlign=middle;resizable=0;points=[];labelBackgroundColor=default;" parent="PcnibOVChp5ECEz_akHt-11" vertex="1" connectable="0">
          <mxGeometry x="-0.139" relative="1" as="geometry">
            <mxPoint x="19" y="32" as="offset" />
          </mxGeometry>
        </mxCell>
        <mxCell id="PcnibOVChp5ECEz_akHt-16" style="edgeStyle=orthogonalEdgeStyle;rounded=0;orthogonalLoop=1;jettySize=auto;html=1;entryX=0;entryY=0.5;entryDx=0;entryDy=0;" parent="1" source="PcnibOVChp5ECEz_akHt-13" target="kyE_ZreP79h8OeemXXtl-39" edge="1">
          <mxGeometry relative="1" as="geometry" />
        </mxCell>
        <object label="&lt;span&gt;&lt;b&gt;API Gateway/BFF&lt;/b&gt;&lt;/span&gt;&lt;div&gt;[Container: ASP.NET 6&lt;span&gt;]&lt;/span&gt;&lt;/div&gt;&lt;div&gt;&lt;br&gt;&lt;/div&gt;&lt;div&gt;Forwards API requests from UI layer and implements&lt;/div&gt;&lt;div&gt;BFF authentication&amp;nbsp;&lt;/div&gt;" placeholders="1" c4Name="name" c4Type="Container" c4Technology="technology" c4Description="Description" id="PcnibOVChp5ECEz_akHt-13">
          <mxCell style="rounded=1;whiteSpace=wrap;html=1;labelBackgroundColor=none;fillColor=#438dd5;fontColor=#ffffff;align=center;arcSize=6;strokeColor=#3c7fc0;" parent="1" vertex="1">
            <mxGeometry x="829" y="150" width="160" height="110" as="geometry" />
            <C4Container as="c4" />
          </mxCell>
        </object>
        <mxCell id="PcnibOVChp5ECEz_akHt-14" value="&lt;font color=&quot;#000000&quot;&gt;&lt;b&gt;System entry point&lt;/b&gt;&lt;/font&gt;" style="text;html=1;strokeColor=none;fillColor=default;align=center;verticalAlign=middle;whiteSpace=wrap;rounded=0;dashed=1;fontColor=#2F6496;" parent="1" vertex="1">
          <mxGeometry x="831" y="117.9" width="160" height="30" as="geometry" />
        </mxCell>
        <mxCell id="PcnibOVChp5ECEz_akHt-15" value="" style="shape=image;verticalLabelPosition=bottom;labelBackgroundColor=#ffffff;verticalAlign=top;aspect=fixed;imageAspect=0;image=https://upload.wikimedia.org/wikipedia/commons/thumb/e/ee/.NET_Core_Logo.svg/1200px-.NET_Core_Logo.svg.png;imageBorder=none;" parent="1" vertex="1">
          <mxGeometry x="818" y="136" width="35.37" height="35.37" as="geometry" />
        </mxCell>
      </root>
    </mxGraphModel>
  </diagram>
</mxfile>
